<svg version="1.1" viewBox="0 0 640 512" xml:space="preserve" xmlns="http://www.w3.org/2000/svg"><path d="m319.95 32c-80.8 0-145.5 36.8-192.6 80.6-46.8 43.4-78.1 95.4-92.9 131.1-3.3 7.9-3.3 16.7 0 24.6 14.8 35.7 46.1 87.7 92.9 131.1 47.1 43.8 111.8 80.6 192.6 80.6s145.5-36.8 192.6-80.6c46.8-43.5 78.1-95.4 93-131.1 3.3-7.9 3.3-16.7 0-24.6-14.9-35.7-46.2-87.7-93-131.1-47.1-43.8-111.8-80.6-192.6-80.6zm-144 224a144 144 0 1 1 288 0 144 144 0 1 1-288 0zm144-64c0 35.3-28.7 64-64 64-7.1 0-13.9-1.2-20.3-3.3-5.5-1.8-11.9 1.6-11.7 7.4 0.3 6.9 1.3 13.8 3.2 20.7 13.7 51.2 66.4 81.6 117.6 67.9s81.6-66.4 67.9-117.6c-11.1-41.5-47.8-69.4-88.6-71.1-5.8-0.2-9.2 6.1-7.4 11.7 2.1 6.4 3.3 13.2 3.3 20.3z"/></svg>
