<svg version="1.1" viewBox="0 0 640 512" xml:space="preserve" xmlns="http://www.w3.org/2000/svg"><path d="m475.27 0.023438c-13.405 0.80664-79.5 22.261-170.92 55.588l-161.82 58.984-29.736-15.068c-15.718-7.9651-27.729-11.14-37.678-8.9727 26.498 20.73 68.274 53.449 83.125 65.049l55.824-19.936c39.807-14.216 98.426-35.352 130.26-46.971 56.623-20.666 57.796-20.838 54.051-7.9316-17.588 60.605-17.512 156.26 0.1875 234.65l2e-3 -2e-3c2.8126 12.455 8.6509 17.819-23.623 10.107 24.322 19.072 51.029 40.015 88.104 69.1 0.98827 0.18425 3.9775 0.93288 4.375 0.95117 16.132 0.7376 52.008-37.522 49.707-53.01-3.4955-23.525-21.228-27.888-37.461-9.2168-7.8769 9.0599-16.754 14.969-19.729 13.131-27.066-16.721-38.31-202.01-16.121-265.65 13.48-38.662 18.098-41.359 35.85-20.941 15.972 18.373 33.936 14.402 37.334-8.25 2.0246-13.5-23.27-46.262-39.76-51.496-0.41721-0.13235-1.077-0.17096-1.9707-0.11719zm101.19 57.357c-5.4985-0.30463-12.815 2.922-26.871 10.553-46.913 25.466-56.309 38.436-39.805 54.939v2e-3c12.256 12.254 12.79 12.148 49.705-9.8809 33.992-20.285 42.708-37.549 25.969-51.441-3.054-2.5351-5.6989-3.9891-8.998-4.1719zm-532.84 69.578c-14.365 35.919-12.554 141.2 3.3594 176.14 16.031 35.198 28.672 39.016 68.613 20.73l31.455-14.4 154.76 42.826-4e-3 -0.01c16.892 4.6746 29.042 7.8262 44.646 12.062l-90.779-71.15-113.95-31.379-25.775 12.523c-14.177 6.8878-27.814 10.48-30.305 7.9824-4.2562-4.2665-5.6317-89.339-3.2929-124.97zm502.95 45.262c-13.043 0.03-25.633 2.1753-34.662 7.0078-12.788 6.8458-14.875 23.25-4.3066 33.82 18.119 18.111 98.555 4.7052 98.555-16.428 0-14.297-30.891-24.466-59.586-24.4zm-27.041 92.512c-7.5655 0.50674-12.707 4.5327-15.59 12.045-5.2455 13.669 3.7254 24.658 35.188 43.105h2e-3c32.028 18.778 32.848 19.026 46.018 13.973 14.948-5.7365 11.075-29.574-6.8535-42.182-26.816-18.855-46.154-27.786-58.764-26.941zm-313.69 85.666c-4.5275-0.43372-10.004 1.2993-16.627 4.8438-9.7311 5.2088-11.309 12.648-11.309 53.357 0 55.909 10.078 81.9 37.082 95.633l-2e-3 2e-3c50.026 25.44 97.848-14.218 97.848-81.146 0-63.14-45.131-58.212-48.176 5.2598-1.6704 34.823-1.8753 35.197-19.287 35.197h-17.6l-1.4922-41.064c-1.8154-49.97-6.855-70.781-20.438-72.082z" style="stroke-width:5.8665"/><path d="m38.8 5.1c-10.4-8.2-25.5-6.3-33.7 4.1s-6.3 25.5 4.1 33.7l592 464c10.4 8.2 25.5 6.3 33.7-4.1s6.3-25.5-4.1-33.7c-601.7-472.17-317.2-248.63-592-464z"/></svg>
