<svg version="1.1" viewBox="0 0 640 512" xml:space="preserve" xmlns="http://www.w3.org/2000/svg"><path d="m322.53 0-112.78 27.297c-95.976 23.229-113.98 29.121-120.8 39.533-3.1326 4.7809-4.9857 12.528-5.9805 29.869 8.4737 6.6269 23.896 18.708 29.727 23.262l-0.47461-34.211 20.061-5.2812c11.034-2.9046 57.785-14.716 103.89-26.246l83.828-20.965 83.85 20.963c46.118 11.529 92.694 23.29 103.5 26.135l19.648 5.1699-0.11328 121.63c-0.10317 108.96-1.1729 123.95-10.264 143.98-7.8928 17.387-22.611 35.374-42.264 52.357 11.834 9.2837 13.511 10.592 26.764 20.99 18.663-16.808 33.28-34.745 43.363-53.578 10.669-19.926 11.43-29.363 12.953-160.65 1.3716-118.28 0.42687-140.68-6.2129-147.32-4.3076-4.3056-57.526-20.227-118.26-35.381zm-240.37 157.16c0.06602 15.246 0.15084 30.724 0.41992 52 1.8111 104.73-4.3141 128.17 16.287 159.91 26.161 53.272 95.802 103.58 183.46 135.51v2e-3c34.731 12.65 54.649 10.008 112.45-14.914 24.827-10.705 47.095-22.496 66.738-35.174l-27.855-21.832c-9.2676 5.639-18.891 11.095-29.123 16.105l4e-3 4e-3c-66.309 32.471-78.473 35.046-111.85 23.684-71.98-24.501-136.74-69.901-162.7-114.07-22.096-26.631-16.474-95.163-16.049-148.51l-0.39062-28.117z" style="stroke-width:5.2399"/><path d="m38.8 5.1c-10.4-8.2-25.5-6.3-33.7 4.1s-6.3 25.5 4.1 33.7l592 464c10.4 8.2 25.5 6.3 33.7-4.1s6.3-25.5-4.1-33.7c-601.7-472.17-317.2-248.63-592-464z"/></svg>
