<svg version="1.1" viewBox="0 0 640 512" xml:space="preserve" xmlns="http://www.w3.org/2000/svg"><path transform="matrix(.81203 0 0 .81203 60.149 48.121)" d="m501.02 165.49c12.516-12.516 32.739-12.516 45.255 0s12.516 32.739 0 45.255l-13.223 13.223 148.99 0.0707c17.678 0 32.032 14.354 32.032 32.032s-14.354 32.032-32.032 32.032l-148.99-0.0707 13.223 13.223c12.516 12.516 12.516 32.739 0 45.255s-32.739 12.516-45.255 0l-67.882-67.882c-6.2225-6.2225-9.3338-14.425-9.4045-22.557v-0.14142c0.0707-4.3134 0.91924-8.4146 2.4042-12.162 1.4849-3.7477 3.8184-7.2125 6.9296-10.324l0.0707-0.0707z"/><path transform="matrix(.81203 0 0 .81203 60.149 48.121)" d="m106.95 224-13.223-13.223c-12.516-12.516-12.516-32.739 0-45.255s32.739-12.516 45.255 0l67.953 67.953c6.2225 6.2225 9.2631 14.354 9.3338 22.486v0.14142c-0.0707 4.3134-0.91924 8.4146-2.4042 12.162-1.5556 3.8184-3.8891 7.2832-6.9296 10.324l-67.882 67.882c-12.516 12.516-32.739 12.516-45.255 0s-12.516-32.739 0-45.255l13.152-13.152-148.99-0.0707c-17.678 0-32.032-14.354-32.032-32.032s14.354-32.032 32.032-32.032z"/><path transform="matrix(.81203 0 0 .81203 .058466 48.121)" d="m433.41 58.961v394.07c0 21.797-17.61 39.407-39.407 39.407s-39.407-17.61-39.407-39.407v-394.07c0-21.797 17.61-39.407 39.407-39.407s39.407 17.61 39.407 39.407z" style="stroke-width:1.2315"/></svg>
