<?xml version="1.0" encoding="UTF-8"?>
<svg id="svg2352" version="1.1" viewBox="0 0 640 512" xml:space="preserve" xmlns="http://www.w3.org/2000/svg"><path id="path21" d="m320.04 0a118.78 118.78 0 0 0-83.84 34.643l-102.09 102.08c4.3279 3.3784 20.867 16.335 25.457 19.92l99.295-99.312a86.173 86.173 0 0 1 61.156-25.299 86.224 86.224 0 0 1 61.182 25.324l137.56 137.49a86.506 86.506 0 0 1 0 122.31l-67.908 67.908c10.124 7.9416 14.078 11.04 25.404 19.926l65.162-65.15a118.78 118.78 0 0 0 0-167.68l-137.54-137.51a118.78 118.78 0 0 0-83.84-34.643zm44.521 147.5c-11.662-0.12816-23.222 2.5119-33.705 7.6895-9.7655 4.6905-18.071 11.97-24.043 21.018a53.826 53.826 0 0 0-8.7656 30.117 56.645 56.645 0 0 0 6.5879 26.861 60.798 60.798 0 0 0 18.096 20.891c-7.5508 3.6935-14.247 8.7849-19.885 14.908 4.7504 3.7227 20.04 15.721 25.529 20.023a38.447 38.447 0 0 1 14.604-12.762c6.6385-3.3064 13.995-4.9717 21.428-4.8691a45.521 45.521 0 0 1 21.275 4.8691 37.627 37.627 0 0 1 14.609 13.072 32.475 32.475 0 0 1 5.2539 17.941c0.0513 6.4335-1.8447 12.765-5.4844 18.07-3.0163 4.4418-6.9958 8.0864-11.568 10.828 8.0816 6.3378 18.073 14.172 27.318 21.424a69.205 69.205 0 0 0 15.699-15.643 58.644 58.644 0 0 0 0.51172-65.104h-0.0254c-6.5616-9.8424-15.66-17.787-26.297-22.965a58.952 58.952 0 0 0 18.096-20.506 56.389 56.389 0 0 0 6.5352-26.912c0.12816-10.714-2.8965-21.224-8.7148-30.246-5.8696-9.0222-14.071-16.276-23.734-21.018-10.329-5.1775-21.761-7.8176-33.32-7.6895zm-118.29 2.4609-59.283 28.156c2.6001 2.0336 24.318 19.077 27.342 21.443l7.002-3.334v8.8262c4.2597 3.334 31.687 24.857 36.986 29.008v-84.1zm-146.46 21.045-1.1523 1.1524a118.6 118.6 0 0 0 0 167.68l137.54 137.51a118.31 118.31 0 0 0 83.814 34.654h0.0508a118.29 118.29 0 0 0 83.814-34.654l38.137-38.131-25.408-19.914-35.361 35.361a86.634 86.634 0 0 1-122.34 0l-137.54-137.51a86.48 86.48 0 0 1 0-122.31l3.8906-3.8906zm258.62 7.6406a38.626 38.626 0 0 1 22.715 3.457 29.015 29.015 0 0 1 16.275 26.578 31.603 31.603 0 0 1-16.354 28.17c-5.1263 2.8707-10.917 4.3326-16.812 4.2812-5.9208 0.0769-11.766-1.4355-16.918-4.3574-4.9468-2.8194-9.0978-6.8698-11.994-11.791-2.9476-4.9212-4.4868-10.561-4.4355-16.303a28.451 28.451 0 0 1 4.4355-15.762 30.604 30.604 0 0 1 11.994-10.816 38.626 38.626 0 0 1 11.094-3.457zm-137.1 87.604v105.09h36.986v-76.1zm66.836 52.385a57.747 57.747 0 0 0 8.7773 23.229 71.101 71.101 0 0 0 28.117 23.4 94.81 94.81 0 0 0 32.564 7.8125z" stroke-width="25.631"/><path id="path23" d="m38.8 5.1c-10.4-8.2-25.5-6.3-33.7 4.1s-6.3 25.5 4.1 33.7l592 464c10.4 8.2 25.5 6.3 33.7-4.1s6.3-25.5-4.1-33.7c-601.7-472.17-317.2-248.63-592-464z"/></svg>
