<svg version="1.1" viewBox="0 0 640 512" xml:space="preserve" xmlns="http://www.w3.org/2000/svg"><g><path d="m38.8 5.1c-10.4-8.2-25.5-6.3-33.7 4.1s-6.3 25.5 4.1 33.7l592 464c10.4 8.2 25.5 6.3 33.7-4.1s6.3-25.5-4.1-33.7c-601.7-472.17-317.2-248.63-592-464z"/><path d="m320.4 0c-10.14 0-37.198 21.484-49.793 39.533l-4.9023 7.0234 12.34 5.4238c11.779 5.1766 33.529 18.352 38.863 23.543 1.3816 1.3445 2.6033 2.4453 2.7148 2.4453 0.11149 0 7.4735-4.8539 16.359-10.787 8.8859-5.9332 21.333-12.983 27.662-15.666l11.508-4.8789-4.9297-7.0645c-12.619-18.086-39.671-39.572-49.822-39.572zm-124.97 67.844c-23.823-0.37329-46.992 2.8959-53.15 9.0547-6.0407 6.0407-9.0923 19.634-10.061 44.816-0.17585 4.5738-0.13918 9.0734 0.01 13.533 13.122 10.243 92.153 72.222 117.34 91.949 3.6655-8.9037 9.1765-17.46 16.916-25.199 44.18-44.18 119.2-19.224 129.9 43.209 4.8052 28.053-8.0883 56.051-31 72.822 36.421 28.558 69.161 54.224 138.66 108.75 1.4683-3.9203 2.5101-8.8012 3.4492-15.113 7.9012-53.108-9.2634-107.31-45.777-144.55l-11.021-11.24 11.812-12.184c32.269-33.29 47.875-74.582 46.107-121.98-1.5247-40.874-5.0546-47.215-28.766-51.687-19.779-3.7305-55.583-2.4899-74.525 2.584-26.779 7.1731-54.114 22.781-73.934 42.215l-10.986 10.771-10.986-10.771c-19.82-19.433-47.153-35.042-73.932-42.215-11.232-3.0088-25.763-4.5436-40.057-4.7676zm-86.809 135.56c-3.1992 0.15126-7.8103 4.7855-17.6 14.082-16.428 15.601-26.574 30.227-26.574 38.305 0 10.122 16.235 31.834 34.652 46.34 5.1895 4.0874 10.034 7.433 10.766 7.4336 0.73147 6e-4 3.8979-5.5968 7.0352-12.438 3.1373-6.8407 10.072-18.935 15.412-26.877l9.709-14.439-8.6191-12.469c-4.7406-6.8575-11.784-19.061-15.65-27.119-4.1447-8.6378-5.9316-12.97-9.1309-12.818zm423.57 0c-3.1992-0.15126-4.9881 4.1806-9.1328 12.818-3.8664 8.0579-10.908 20.262-15.648 27.119l-8.6191 12.469 9.707 14.439c5.3396 7.9419 12.277 20.036 15.414 26.877 3.1373 6.8407 6.2307 12.438 6.875 12.438 5.0991 0 28.013-22.038 38.201-36.74 12.251-17.678 8.2178-29.301-19.199-55.338-9.7893-9.2966-14.398-13.931-17.598-14.082zm-376.4 11.467c6.2851 10.162 13.765 19.797 22.514 28.822l11.811 12.184-11.02 11.24c-36.24 36.96-53.891 92.301-45.723 143.36 3.9501 24.691 6.8617 27.954 28.4 31.842 52.628 9.4989 107.02-6.6961 145.29-43.262l13.266-12.672 14.428 13.498c30.837 28.851 72.262 44.848 114.52 45.021l-143.56-112.52c-23.794-4.4288-42.896-20.833-53.242-41.73zm164.62 219.5-12.904 8.9199c-7.0979 4.9068-19.463 11.995-27.477 15.75l-14.57 6.8281 7.7109 10.02c8.6386 11.226 19.887 21.675 32.635 30.312 5.7146 3.872 10.564 5.7969 14.605 5.7969 10.131 0 32.773-17.306 47.242-36.109l7.709-10.02-14.57-6.8281c-8.0137-3.7554-20.377-10.843-27.475-15.75z" style="stroke-width:1.7155"/></g></svg>
