<?xml version="1.0" encoding="UTF-8"?>
<svg version="1.1" viewBox="0 0 640 512" xml:space="preserve" xmlns="http://www.w3.org/2000/svg"><path d="m320 256a65.669 65.669 0 1 0 0-131.34 65.669 65.669 0 1 0 0 131.34zm-23.446 24.626c-50.534 0-91.475 40.94-91.475 91.475 0 8.4138 6.8234 15.237 15.237 15.237h199.37c8.4138 0 15.237-6.8234 15.237-15.237 0-50.534-40.94-91.475-91.475-91.475z" stroke-width=".51304"/><path d="m147.59 195.01c8.8005-24.916 23.087-48.346 43.202-68.347 71.433-71.433 187.21-71.433 258.64 0l19.544 19.658c55.086 61.222 66.923 71.525 88.233 73.147h0.45717c20.23 0 36.573-16.344 36.573-36.573v-128.01c0-20.23-16.344-36.573-36.573-36.573-20.23 0-36.573 16.344-36.573 36.573v40.231l-20.001-20.115c-100.01-100.01-262.07-100.01-362.08 0-27.887 27.887-48.003 60.689-60.346 95.777-6.7432 19.087 3.3145 39.888 22.287 46.631 18.972 6.7432 39.888-3.3145 46.631-22.287zm-75.547 99.091c-5.7146 1.7144-11.201 4.8003-15.658 9.372-4.5717 4.5717-7.6576 10.058-9.2577 16.001-0.34288 1.3715-0.68575 2.8573-0.91434 4.3431-0.34288 1.943-0.45717 3.8859-0.45717 5.8289v127.55c0 20.23 16.344 36.573 36.573 36.573 20.23 0 36.573-16.344 36.573-36.573v-40.117l20.115 20.001c100.01 99.891 262.07 99.891 361.96 0 27.887-27.887 48.117-60.689 60.461-95.662 6.7432-19.087-3.3145-39.888-22.287-46.631-18.972-6.7432-39.888 3.3145-46.631 22.287-8.8005 24.916-23.087 48.346-43.202 68.347-71.433 71.433-187.21 71.433-258.64 0l-0.11428-0.11429-19.544-19.544c-56.366-55.277-55.443-73.958-88.233-73.147-1.8281 0.0452-3.6573 0.1143-5.486 0.34288-1.8287 0.22859-3.5431 0.57146-5.2574 1.1429z" stroke-width="1.1429"/></svg>
