<svg version="1.1" viewBox="0 0 640 512" xml:space="preserve" xmlns="http://www.w3.org/2000/svg"><path d="m96 32c-35.3 0-64 28.7-64 64v320c0 35.3 28.7 64 64 64h448c35.3 0 64-28.7 64-64v-320c0-35.3-28.7-64-64-64zm165.5 141.3 72 144c5.9 11.9 1.1 26.3-10.7 32.2s-26.3 1.1-32.2-10.7l-5.4-10.8h-90.4l-5.4 10.7c-5.9 11.9-20.3 16.7-32.2 10.7s-16.7-20.3-10.7-32.2l72-144c4.1-8.1 12.4-13.3 21.5-13.3s17.4 5.1 21.5 13.3zm-21.5 64.4-21.2 42.3h42.3zm184 18.3a24 24 0 1 0 0 48 24 24 0 1 0 0-48zm24-43.9v-28.1c0-13.3 10.7-24 24-24s24 10.7 24 24v144c0 13.3-10.7 24-24 24-6.6 0-12.6-2.7-17-7-9.4 4.5-19.9 7-31 7-39.8 0-72-32.2-72-72s32.2-72 72-72c8.4 0 16.5 1.4 24 4.1z"/></svg>
