<svg version="1.1" viewBox="0 0 640 512" xml:space="preserve" xmlns="http://www.w3.org/2000/svg"><path d="m112.53 511.39c-12.64-2.1536-22.338-6.9424-31.119-15.367-13.657-13.102-19.182-29.192-16.661-48.517 1.997-15.31 5.8487-20.658 39.112-54.306l30.58-30.934 24.094 24.027-29.061 29.232c-24.071 24.212-29.357 30.235-30.782 35.075-4.6396 15.757 10.376 30.685 26.555 26.398 4.9673-1.3159 10.224-5.9047 35.075-30.617l29.232-29.069 24.004 24.004-26.798 26.961c-14.739 14.829-30.429 29.682-34.867 33.007-11.22 8.4067-26.425 12.311-39.363 10.106zm90.742-139.5-109.29-109.3 24.044-24.044 55.878 55.828 267.37-294.38h60.481c66.759 0 66.068-0.083857 71.399 8.6595 2.5547 4.1898 2.684 7.3239 2.6889 65.169l5e-3 60.768-96.582 87.673c-53.12 48.22-119.36 108.37-147.21 133.66l-50.625 45.987 55.837 55.887-11.634 11.695c-6.3988 6.4323-11.959 11.695-12.355 11.695s-49.901-49.183-110.01-109.3zm204.66-130.61 134.85-122.36-0.30914-42.62-0.30911-42.62-84.438-0.72699-26.752 29.235c-14.714 16.079-73.175 80.276-129.91 142.66l-103.16 113.42 59.457 59.611 7.8597-7.1207c-0.53938 0.48867 0.38602-0.33943 142.71-129.48z" style="stroke-width:1.3748"/></svg>
