<svg version="1.1" viewBox="0 0 640 512" xml:space="preserve" xmlns="http://www.w3.org/2000/svg"><path d="m319.89 0.0058594c-84.028 0.59738-164.97 45.657-212.68 115.67 5.8564 4.575 23.395 18.317 28.168 22.043 101.64-159.44 354.84-118.7 400.69 75.887 16.327 69.278-7.3143 142.52-55.787 194.54 12.108 9.4994 13.152 10.311 26.693 20.936 16.428-17.858 30.572-38.336 41.732-61.219 49.533-101.57 32.398-201.8-49.232-288-53.331-56.319-117.3-80.294-179.58-79.852zm-236.18 158.37c-23.84 55.459-28.378 121.43-3.0684 191.16l13.047 35.943-15.377 48.719c-17.905 56.727-18.68 65.061-6.6777 71.777l2e-3 6e-3c6.115 3.4219 26.209 0.32488 64.426-9.9277 54.973-14.748 55.767-14.802 77.699-5.4004 88.029 37.736 185.24 23.813 256.89-28.994l-27.381-21.461c-18.242 12.657-38.493 22.78-60.375 29.539l8e-3 4e-3c-52.316 16.159-99.74 12.622-156.15-11.646l-26.899-11.573-45.195 11.854c-24.857 6.5196-45.839 11.12-46.627 10.221-0.78837-0.89789 4.2241-20.782 11.141-44.186l12.576-42.551-14.549-31.912c-21.106-46.295-21.935-114.74-3.5684-168.12zm340.71 71.893c-22.691 0-34.365 28.7-18.236 44.83 16.131 16.13 44.83 4.4568 44.83-18.234 0-12.691-13.903-26.596-26.594-26.596zm-105.68 0.8711c-13.719-0.26915-27.285 10.124-27.285 25.725 0 1.0861 0.2501 2.337 0.52735 3.5938 5.072 3.9743 23.038 18.071 29.027 22.766 20.695-2.3828 30.679-29.19 15.273-44.596-5.0404-5.0406-11.307-7.3659-17.543-7.4883zm-128.6 10.654c-3.1193 4.1021-5.0586 9.2083-5.0586 15.07 1e-5 5.4328 3.7604 13.639 8.3574 18.236h2e-3c4.597 4.597 12.802 8.3594 18.234 8.3594 8.2633 0 15.038-3.8305 19.568-9.4492z" style="stroke-width:5.3188"/><path d="m38.8 5.1c-10.4-8.2-25.5-6.3-33.7 4.1s-6.3 25.5 4.1 33.7l592 464c10.4 8.2 25.5 6.3 33.7-4.1s6.3-25.5-4.1-33.7c-601.7-472.17-317.2-248.63-592-464z"/></svg>
