<?xml version="1.0" encoding="UTF-8"?>
<svg id="svg2352" version="1.1" viewBox="0 0 640 512" xml:space="preserve" xmlns="http://www.w3.org/2000/svg"><path id="path1-9" transform="matrix(30.487 0 0 30.487 .61027 -61.059)" d="m12.8 17.524 6.89-6.887a0.9 0.9 0 0 0 0-1.273l-6.89-6.887a1.64 1.64 0 0 0-1.782-0.349 1.64 1.64 0 0 0-1.014 1.518v2.593c-5.95 0.489-8.812 5.836-9.004 11.137a1.353 1.353 0 0 0 0.862 1.32 1.35 1.35 0 0 0 1.531-0.364l0.334-0.381c1.705-1.944 3.323-3.791 6.277-4.103v2.509c0 0.667 0.398 1.262 1.014 1.518a1.638 1.638 0 0 0 1.783-0.349v-2e-3zm-0.994-1.548v-3.976h-0.9c-3.969 0-6.162 2.1-8.001 4.161 0.514-4.011 2.823-8.16 8-8.16h0.9v-3.977l5.979 5.976-5.977 5.976z" fill="currentColor"/></svg>
