<?xml version="1.0" encoding="UTF-8"?>
<svg id="svg2352" version="1.1" viewBox="0 0 640 512" xml:space="preserve" xmlns="http://www.w3.org/2000/svg"><path id="path18" d="m319.99 0a230.48 230.48 0 0 0-203.28 123.11c4.7915 3.7417 21.105 16.523 25.379 19.859a198.25 198.25 0 0 1 177.9-110.97 198.48 198.48 0 0 1 182.94 121.52 198.2 198.2 0 0 1-41.293 215.63c7.552 7.68 14.259 16.102 20.045 25.164a230.22 230.22 0 0 0-161.69-394.32zm0.0254 73.012a157.26 157.26 0 0 0-144.34 96.234c2.7954 2.1854 22.404 17.57 25.707 20.154a125.49 125.49 0 0 1 118.61-84.953 125.36 125.36 0 0 1 74.855 226.02 139.88 139.88 0 0 1 33.92 13.439v0.0254h0.0508a157.18 157.18 0 0 0 37.248-172.24 157.41 157.41 0 0 0-146.05-98.688zm-0.0254 70.092a87.501 87.501 0 0 0-85.629 72.166c3.91 3.0611 26.743 20.979 31.455 24.67a55.501 55.501 0 0 1-0.22657-20.24 55.45 55.45 0 0 1 75.623-40.396 55.475 55.475 0 0 1 34.252 51.199 55.475 55.475 0 0 1-51.172 55.301c6.5407 5.1269 23.367 18.328 31.121 24.408a87.45 87.45 0 0 0 52.051-79.684 87.501 87.501 0 0 0-87.475-87.424zm-221.91 26.545a230.14 230.14 0 0 0 60.217 224.69c5.7856-9.088 12.493-17.535 20.045-25.189a198.25 198.25 0 0 1-52.527-177.77zm65.365 51.232a157.26 157.26 0 0 0 47.768 123.03 139.88 139.88 0 0 1 33.92-13.439 125.31 125.31 0 0 1-49.109-84.057zm116.07 137.6a116.99 116.99 0 0 0-113.13 120.27v8.7031a24.371 24.371 0 0 0 24.09 24.551h259.02a24.422 24.422 0 0 0 24.09-24.627v-8.6524a116.86 116.86 0 0 0-0.58203-15.215l-46.416-36.379a85.069 85.069 0 0 1 14.998 51.594v1.4083h-243.2v-1.4082a84.992 84.992 0 0 1 81.127-88.32h80.947a85.069 85.069 0 0 1 26.236 5.4609l-47.697-37.385z" stroke-width="25.6"/><path id="path20" d="m38.8 5.1c-10.4-8.2-25.5-6.3-33.7 4.1s-6.3 25.5 4.1 33.7l592 464c10.4 8.2 25.5 6.3 33.7-4.1s6.3-25.5-4.1-33.7c-601.7-472.17-317.2-248.63-592-464z"/></svg>
