<svg version="1.1" viewBox="0 0 640 512" xml:space="preserve" xmlns="http://www.w3.org/2000/svg"><g><path d="m320.08 0c-16.719 0-33.44 1.5807-43.861 4.7402-67.103 20.344-111.91 72.687-120.76 141.06-0.17597 1.3603-0.29813 4.9255-0.45703 7.2793 4.9887 3.896 26.535 20.782 33.111 25.926 2.1347-57.381 10.031-78.848 38.941-107.76 60.898-60.898 161.35-48.609 205.97 25.197 15.283 25.281 19.398 45.024 19.398 93.08 0 54.375 10.558 79.161 45.271 106.27 24.499 19.131 34.594 39.611 34.723 70.459l0.0293 7.3106h-96.27c15.815 12.406 23.326 18.29 42.441 33.287 36.797-0.41226 63.111-0.98245 65.689-1.748 18.005-5.347 23.619-19.292 20.75-51.545-3.2416-36.444-16.275-60.926-43.445-81.609-14.468-11.014-21.738-19.285-27.83-31.658-5.9708-12.128-7.1384-20.985-8.8965-67.557-1.182-31.31-2.0553-40.623-4.6953-50.016-16.613-59.107-56.885-99.975-116.26-117.97-10.422-3.1596-27.14-4.7402-43.859-4.7402zm-167.22 212.59c-2.6254 28.933-11.27 42.271-34.613 59.576-25.464 18.877-39.322 44.024-42.979 77.986-3.6548 33.945 2.0023 49.25 20.318 54.963 6.7316 2.0996 176.23 2.7098 305.64 2.1406l-42.984-33.691h-250.54v-10.562c0-29.675 8.6062-46.4 34.473-66.992 22.048-17.553 33.514-33.511 41.027-57.102 0.22667-0.71174 0.35277-1.4145 0.55273-2.1016zm113 245.62 1.0723 7.3106c2.9544 20.158 16.794 36.678 36.674 43.779 29.836 10.657 64.951-11.422 69.623-43.779l1.0547-7.3106h-54.211z" style="stroke-width:1.5389"/><path d="m38.8 5.1c-10.4-8.2-25.5-6.3-33.7 4.1s-6.3 25.5 4.1 33.7l592 464c10.4 8.2 25.5 6.3 33.7-4.1s6.3-25.5-4.1-33.7c-601.7-472.17-317.2-248.63-592-464z"/></g></svg>
