<svg version="1.1" viewBox="0 0 640 512" xml:space="preserve" xmlns="http://www.w3.org/2000/svg"><path transform="translate(.12966 -4.6906)" d="m283.42 384.81c11.839-8.6267 27.165-10.829 40.931-5.8735 24.32 8.8103 51.577 13.858 80.577 13.858 114.44 0 190.89-73.878 190.89-146.84 0-72.96-76.447-146.84-190.89-146.84s-190.89 73.878-190.89 146.84c0 29.368 11.38 57.634 32.763 81.862 7.8925 8.902 11.747 20.649 10.829 32.58-1.2848 16.611-5.2311 31.845-10.37 45.336 15.602-7.2501 28.542-15.326 36.159-20.833zm-93.976 37.26c1.6519-2.4779 3.2121-4.9558 4.6805-7.4336 9.1774-15.234 17.896-35.241 19.64-57.726-27.532-31.295-43.776-69.564-43.776-110.95 0-105.45 105.17-190.89 234.94-190.89s234.94 85.441 234.94 190.89c0 105.45-105.17 190.89-234.94 190.89-34.048 0-66.352-5.8735-95.536-16.427-10.921 7.9843-28.725 18.905-49.833 28.083-13.858 6.0571-29.643 11.563-45.979 14.776-0.73419 0.18355-1.4684 0.27531-2.2026 0.45886-4.038 0.73419-7.9843 1.3766-12.114 1.7437-0.18355 0-0.45887 0.0919-0.64242 0.0919-4.6804 0.45886-9.3609 0.73418-14.041 0.73418-5.9653 0-11.288-3.5792-13.582-9.0856s-1.0095-11.747 3.1203-15.969c3.7627-3.8545 7.1584-7.9843 10.37-12.389 1.5602-2.1108 3.0285-4.2216 4.4051-6.3324 0.0918-0.18356 0.18354-0.27531 0.27532-0.45887z" style="stroke-width:.91774"/><path transform="translate(.12966 -4.6906)" d="m95.167 459.41c-4.048 4.3798-9.6885 6.9015-15.661 6.9015-5.9724 0-11.613-2.5217-15.661-6.9015l-58.397-63.706c-7.8968-8.6265-7.366-22.098 1.3272-29.995 8.6934-7.8968 22.098-7.366 29.995 1.3272l21.501 23.425v-92.913c0-11.746 9.4894-21.236 21.236-21.236s21.236 9.4893 21.236 21.236v92.913l21.501-23.492c7.8968-8.6265 21.368-9.224 29.995-1.3272 8.6265 7.8968 9.224 21.368 1.3272 29.995l-58.397 63.706z" style="stroke-width:.66361"/><path transform="translate(.12966 -4.6906)" d="m95.167 61.973c-4.048-4.3798-9.6885-6.9015-15.661-6.9015-5.9724 0-11.613 2.5217-15.661 6.9015l-58.397 63.706c-7.8968 8.6265-7.366 22.098 1.3272 29.995 8.6934 7.8968 22.098 7.366 29.995-1.3272l21.501-23.425v92.913c0 11.746 9.4894 21.236 21.236 21.236s21.236-9.4893 21.236-21.236v-92.913l21.501 23.492c7.8968 8.6265 21.368 9.224 29.995 1.3272 8.6265-7.8968 9.224-21.368 1.3272-29.995l-58.397-63.706z" style="stroke-width:.66361"/></svg>
