<svg version="1.1" viewBox="0 0 640 512" xml:space="preserve" xmlns="http://www.w3.org/2000/svg"><path transform="translate(675.4 124.99)" d="m-235.4 127.02c0-11.062 8.9373-19.999 19.999-19.999h150c8.2498 0 15.625 5.0624 18.624 12.75 2.9999 7.6873 0.93747 16.437-5.1249 21.999l-82.06 75.248h13.562c46.936 0 84.998 38.061 84.998 84.998 0 46.936-38.061 84.998-84.998 84.998h-49.124c-26.499 0-50.749-15-62.561-38.686l-1.1875-2.3749c-4.9374-9.8747-0.93748-21.874 8.9372-26.812 9.8747-4.9374 21.874-0.93747 26.812 8.9373l1.1875 2.3749c5.0624 10.187 15.5 16.562 26.812 16.562h49.124c24.874 0 44.999-20.124 44.999-44.999 0-24.874-20.124-44.999-44.999-44.999h-64.998c-8.2498 0-15.625-5.0624-18.624-12.75-2.9999-7.6873-0.93748-16.437 5.1249-21.999l82.06-75.248h-98.56c-11.062 0-19.999-8.9373-19.999-19.999z" style="stroke-width:.62498"/><path transform="translate(675.4 124.99)" d="m-366.07 31.013c-13.437 0-26.374 5.3124-35.874 14.875l-19.312 19.249c-7.8123 7.8123-20.499 7.8123-28.312 0-7.8123-7.8123-7.8123-20.499 0-28.312l19.312-19.249c17.062-17 40.124-26.562 64.186-26.562 50.061 0 90.685 40.624 90.685 90.685 0 24.062-9.5622 47.124-26.562 64.123l-85.123 85.185h111.68c11.062 0 19.999 8.9372 19.999 19.999 0 11.062-8.9373 19.999-19.999 19.999h-160c-8.0623 0-15.375-4.8749-18.499-12.375-3.1249-7.4998-1.375-16.062 4.3124-21.812l119.31-119.25c9.4997-9.4997 14.875-22.437 14.875-35.874 0-27.999-22.687-50.686-50.686-50.686z" style="stroke-width:.62498"/><path transform="translate(675.4 124.99)" d="m-575.41-104.98c0-7.3748-4.0624-14.125-10.562-17.625-6.4998-3.4999-14.375-3.1249-20.499 0.99997l-59.998 39.999c-9.2498 6.1248-11.687 18.499-5.5624 27.749 6.1248 9.2497 18.562 11.687 27.749 5.5624l28.874-19.312v182.62h-39.999c-11.062 0-19.999 8.9372-19.999 19.999s8.9372 19.999 19.999 19.999h120c11.062 0 19.999-8.9373 19.999-19.999s-8.9373-19.999-19.999-19.999h-39.999z" style="stroke-width:.62498"/></svg>
