<?xml version="1.0" encoding="UTF-8"?>
<svg id="svg2352" version="1.1" viewBox="0 0 640 512" xml:space="preserve" xmlns="http://www.w3.org/2000/svg"><path id="path" d="m259.8 0c-12.1-2.3685e-15 -23.202 6.7992-28.602 17.699l-7.1992 14.301h-96c-17.7 0-32 14.3-32 32s14.3 32 32 32h384c17.7 0 32-14.3 32-32s-14.3-32-32-32h-96l-7.1992-14.301c-5.4-10.9-16.502-17.699-28.602-17.699h-120.4zm-131.8 128v3.9414c11.384 8.8871 66.702 52.253 83.908 65.717 2.9404-3.4301 7.247-5.6582 12.092-5.6582 8.8 0 16 7.2 16 16v11.691c8.2252 6.44 52.012 40.8 64 50.195v-61.887c0-8.8 7.2-16 16-16s16 7.2 16 16v86.984c14.354 11.252 43.946 34.467 64 50.195v-137.18c0-8.8 7.2-16 16-16s16 7.2 16 16v162.28c29.236 22.933 38.578 30.244 80 62.744v-305.02h-384zm0 65.096v254.9c0 35.3 28.7 64 64 64h256c21.575 0 40.644-10.752 52.242-27.148l-68.242-53.486v0.63477c0 8.8-7.2 16-16 16s-16-7.2-16-16v-25.715l-64-50.162v75.877c0 8.8-7.2 16-16 16s-16-7.2-16-16v-100.96l-64-50.162v151.12c0 8.8-7.2 16-16 16s-16-7.2-16-16v-176.2l-80-62.703z"/><path id="line1" d="m38.8 5.1c-10.4-8.2-25.5-6.3-33.7 4.1s-6.3 25.5 4.1 33.7l592 464c10.4 8.2 25.5 6.3 33.7-4.1s6.3-25.5-4.1-33.7c-601.7-472.17-317.2-248.63-592-464z"/></svg>
