<svg version="1.1" viewBox="0 0 640 512" xml:space="preserve" xmlns="http://www.w3.org/2000/svg"><path d="m38.8 5.1c-10.4-8.2-25.5-6.3-33.7 4.1s-6.3 25.5 4.1 33.7l592 464c10.4 8.2 25.5 6.3 33.7-4.1s6.3-25.5-4.1-33.7c-601.7-472.17-317.2-248.63-592-464z"/><path d="m160 32c-35.3 0-64 28.7-64 64v10.9c41.131 32.148 171.1 134.05 297.19 232.94 8.7272-12.003 22.841-19.84 38.809-19.84h112v-224c0-35.3-28.7-64-64-64zm-64 136.01v247.99c0 35.3 28.7 64 64 64h224v-86.256zm336 183.99c-5.7293 0-10.739 3.0783-13.566 7.6367 22.653 17.768 35.563 27.887 66.092 51.838l59.475-59.475h-45.301zm-16 66.826v61.174l34.295-34.295z"/></svg>
