<svg version="1.1" viewBox="0 0 640 512" xml:space="preserve" xmlns="http://www.w3.org/2000/svg"><path d="m224.2 508.54c-177.42-57.164-227.67-310.96-88.999-449.52 53.567-53.524 77.985-60.935 193.32-58.671 81.742 1.6082 93.306 3.0894 117.7 15.097 183.02 90.12 184.75 384.11 2.8248 479.5-28.634 15.013-33.623 15.714-120.29 16.906-49.733 0.6348-96.782-0.8464-104.55-3.3115zm89.031-37.45c165.18-49.051 185.11-329.78 29.653-417.52-104.01-58.698-228.41 23.205-248.28 163.47-22.441 158.36 92.216 291.59 218.63 254.04zm-86.201-92.554c-94.284-43.652-98.214-197.8-6.2422-244.74 26.6-13.575 69.205-14.428 93.486-1.8727 19.519 10.093 19.772 10.971 10.814 37.486-8.4746 25.075-7.7128 24.603-22.658 14.135-42.571-29.819-100.83 10.829-100.83 70.346 0 66.242 45.689 96.083 108.12 70.607 6.8452-2.7931 10.841 0.9522 15.541 14.384 9.6384 27.653 8.1254 31.464-16.395 41.275-29.518 11.812-53.857 11.328-81.832-1.6187zm210.46 81.032c154.36-76.922 141.28-362.64-19.112-417.29-36.807-12.542-41.741-11.306-20.793 5.2054 52.026 41.009 86.592 124.73 86.592 209.72 0 80.635-20.283 133.67-72.648 189.96-29.559 31.776-21.068 35.828 25.962 12.392z" style="stroke-width:5.6513"/></svg>
