<?xml version="1.0" encoding="UTF-8"?>
<svg id="svg2352" version="1.1" viewBox="0 0 640 512" xml:space="preserve" xmlns="http://www.w3.org/2000/svg"><path id="path30" transform="matrix(.8 0 0 .8 214.58 122.49)" d="m438.8 322.07-84.743-125.71a243.87 243.87 0 0 0 23.31-103.74c0-135.51-110.23-245.73-245.7-245.73-135.47 0-245.7 110.23-245.7 245.73 0 37.106 8.4954 72.176 23.31 103.74l-84.743 125.71c-10.145 15.025-11.585 33.771-3.8264 50.165 7.7231 16.394 23.099 27.241 41.178 28.997l55.29 5.3008 26.61 52.447a50.376 50.376 0 0 0 45.531 27.908c16.921 0 32.507-8.2146 42.056-22.432l85.551-126.8c4.9147 0.28084 9.8294 0.73719 14.849 0.73719 5.02 0 9.8996-0.45635 14.849-0.73719l85.551 126.8c9.5486 14.218 25.135 22.432 42.056 22.432 1.0883 0 2.1765 0 3.2999-0.10535a50.376 50.376 0 0 0 42.231-27.768l26.61-52.482 55.325-5.3008c18.044-1.7552 33.42-12.568 41.143-28.997a50.34 50.34 0 0 0-3.8264-50.165zm-307.17-411.99a182.72 182.72 0 0 1 182.55 182.55c0 100.65-81.9 182.55-182.55 182.55a182.72 182.72 0 0 1-182.51-182.55c0-100.65 81.865-182.55 182.55-182.55zm-141.05 501.65-32.893-64.804-69.297-6.6348 58.274-86.428a246.44 246.44 0 0 0 103.07 70.175zm384.29-71.439-69.297 6.6348-32.893 64.804-59.152-87.727a246.19 246.19 0 0 0 103.07-70.175l58.274 86.428z" fill="currentColor" stroke-width="35.105"/></svg>
