<?xml version="1.0" encoding="UTF-8"?>
<svg id="path" version="1.1" viewBox="0 0 640 512" xml:space="preserve" xmlns="http://www.w3.org/2000/svg"><path id="path1-06" d="m176 0.025391c-26.5 0-48 21.5-48 48v83.916c8.3625 6.5283 37.881 29.651 48 37.562v-121.48h288v347.35c20.285 15.913 23.147 18.147 48 37.646v-385c0-26.5-21.5-48-48-48zm-48 193.07v294.93c0 9 5 17.199 13 21.299s17.6 3.4012 24.9-1.7988l154.1-110 154.1 110c7.3 5.2 16.9 5.8988 24.9 1.7988 6.3242-3.2412 10.726-9.0596 12.312-15.795l-190.69-149.46c-5.0896-0.12133-10.21 1.3402-14.521 4.457l-130.1 92.898v-210.71z"/><path id="line" d="m38.8 5.1c-10.4-8.2-25.5-6.3-33.7 4.1s-6.3 25.5 4.1 33.7l592 464c10.4 8.2 25.5 6.3 33.7-4.1s6.3-25.5-4.1-33.7c-601.7-472.17-317.2-248.63-592-464z"/></svg>
