<?xml version="1.0" encoding="UTF-8"?>
<svg id="path" version="1.1" viewBox="0 0 640 512" xml:space="preserve" xmlns="http://www.w3.org/2000/svg"><path id="path1" d="m472.32 0.25781c-16.375 0-32.75 6.25-45.25 18.75h-0.10157l-48.398 48.4 130 130 48.398-48.4c25-25 25-65.5 0-90.5l-39.398-39.5c-12.5-12.5-28.875-18.75-45.25-18.75zm-116.35 89.75-123.63 123.68c17.892 14.007 104.81 82.207 145.66 114.24l107.97-107.92zm-157.92 157.99-75.178 75.211c-10.4 10.4-17.999 23.3-22.199 37.4l-35.4 120.3c-2.5 8.5-0.2 17.601 6 23.801s15.299 8.4996 23.699 6.0996l120.3-35.4c14.1-4.2 27-11.799 37.4-22.199l91.062-91.023z"/><path id="line1" d="m38.8 5.1c-10.4-8.2-25.5-6.3-33.7 4.1s-6.3 25.5 4.1 33.7l592 464c10.4 8.2 25.5 6.3 33.7-4.1s6.3-25.5-4.1-33.7c-601.7-472.17-317.2-248.63-592-464z"/></svg>
