<svg version="1.1" viewBox="0 0 640 512" xml:space="preserve" xmlns="http://www.w3.org/2000/svg"><path transform="matrix(1.4378 0 0 1.4378 -140.08 -112.07)" d="m320 77.945c-98.183 0-178.05 79.872-178.05 178.05s79.872 178.05 178.05 178.05 178.05-79.872 178.05-178.05-79.872-178.05-178.05-178.05zm0 26c84.131 0 152.05 67.923 152.05 152.05s-67.923 152.05-152.05 152.05-152.05-67.923-152.05-152.05 67.923-152.05 152.05-152.05z" style="color:#000000;paint-order:stroke markers fill"/><path transform="matrix(1.4378 0 0 1.4378 -140.08 -112.07)" d="m392.4 180.53v215.87h26v-215.87z" style="color:#000000;paint-order:stroke markers fill"/><path transform="matrix(1.4378 0 0 1.4378 -140.08 -112.07)" d="m314.42 252.73v176.37h26v-176.37z" style="-inkscape-stroke:none;color:#000000;paint-order:stroke markers fill"/><path transform="matrix(1.4378 0 0 1.4378 -140.08 -112.07)" d="m246.19 324.76v89.842h26v-89.842z" style="-inkscape-stroke:none;color:#000000;paint-order:stroke markers fill"/></svg>
