<svg version="1.1" viewBox="0 0 640 512" xml:space="preserve" xmlns="http://www.w3.org/2000/svg"><path d="m319.93-0.029297c-12.3 0-23.399 7-28.799 18l-64.301 132.3-67.271 9.9316c26.672 20.837 161.22 126.37 325.42 255.2l-14.65-86.428 104.2-103.1c8.6-8.5 11.7-21.199 7.9004-32.699-3.8-11.5-13.699-19.901-25.699-21.701l-143.7-21.199-64.299-132.3c-5.3-11-16.501-18-28.801-18zm-226.07 169.93-10.627 1.5684c-12 1.8-22.001 10.201-25.701 21.701-3.7 11.5-0.6996 24.199 7.9004 32.699l104.2 103.1-24.602 145.7c-2 12 3.0004 24.199 12.9 31.299 9.9 7.1 23.001 8.0008 33.801 2.3008l128.3-68.5 128.3 68.5c10.8 5.7 23.901 4.8992 33.801-2.3008 7.2021-5.2379 11.766-13.079 12.973-21.578l-401.25-314.49z"/><path d="m38.8 5.1c-10.4-8.2-25.5-6.3-33.7 4.1s-6.3 25.5 4.1 33.7l592 464c10.4 8.2 25.5 6.3 33.7-4.1s6.3-25.5-4.1-33.7c-601.7-472.17-317.2-248.63-592-464z"/></svg>
