<svg version="1.1" viewBox="0 0 640 512" xml:space="preserve" xmlns="http://www.w3.org/2000/svg"><path d="m289.3 0.027344c-82.673 0.63356-107.23 12.162-154.1 58.996-14.98 14.968-27.623 31.341-38.271 48.605 6.4517 5.0424 22.505 17.621 27.379 21.426 47.492-82.914 138.97-120.4 218.57-75.477 105.45 59.51 130.11 207.77 83.562 312.34 10.15 7.9616 16.935 13.281 28.508 22.359 20.519-37.665 29.223-78.489 29.223-131.07 0-84.994-34.566-168.71-86.592-209.72-20.948-16.511-16.014-17.747 20.793-5.2051 138.33 47.136 166.97 266.05 73.232 374.75 13.234 10.383 12.971 10.168 27.805 21.807 106.76-124.24 81.923-347.01-73.191-423.39-24.392-12.007-35.955-13.488-117.7-15.096-14.417-0.28301-27.414-0.41668-39.225-0.32617zm-20.9 123.04c-17.011 0.34067-34.311 3.9468-47.611 10.734-17.714 9.0412-31.832 22.084-42.471 37.523 3.8317 2.996 35.187 27.601 40.02 31.383 20.413-27.494 55.7-39.045 84.092-19.158 14.945 10.468 14.184 10.94 22.658-14.135 8.9581-26.515 8.7046-27.393-10.814-37.486-12.141-6.2776-28.862-9.202-45.873-8.8613zm-193.37 28.518c-53.773 138.07 6.5703 311.02 149.17 356.96v-2e-3c7.771 2.4651 54.819 3.9473 104.55 3.3125 86.671-1.1913 91.659-1.8933 120.29-16.906 12.627-6.6204 24.277-14.283 35.135-22.682l-29.225-22.904c-5.5918 3.6762-11.352 7.1629-17.469 10.211-47.028 23.434-55.518 19.381-25.959-12.395 5.9042-6.347 11.344-12.652 16.449-18.961l-25.945-20.336c-22.092 29.509-51.766 52.214-88.803 63.213-126.41 37.541-241.07-95.687-218.63-254.04 2.1063-14.865 5.4504-29.028 9.7559-42.484zm83.318 65.303c-14.711 61.211 8.6197 133.85 68.684 161.66 27.974 12.946 52.313 13.428 81.83 1.6172 20.468-8.1893 24.768-12.388 20.07-29.572l-28.861-22.621c-57.42 18.697-98.475-11.299-98.475-74.07 0-1.0113 0.14836-1.9706 0.18164-2.9707z" style="stroke-width:5.6513"/><path d="m38.8 5.1c-10.4-8.2-25.5-6.3-33.7 4.1s-6.3 25.5 4.1 33.7l592 464c10.4 8.2 25.5 6.3 33.7-4.1s6.3-25.5-4.1-33.7c-601.7-472.17-317.2-248.63-592-464z"/></svg>
