<?xml version="1.0" encoding="UTF-8"?>
<svg version="1.1" viewBox="0 0 640 512" xml:space="preserve" xmlns="http://www.w3.org/2000/svg"><path d="m32 64c17.7 0 32 14.3 32 32v320c0 17.7-14.3 32-32 32-17.7 0-32-14.3-32-32v-320c0-17.7 14.3-32 32-32zm608 32v320c0 17.7-14.3 32-32 32s-32-14.3-32-32v-320c0-17.7 14.3-32 32-32s32 14.3 32 32z"/><path d="m206.86 110.85c-8.1848 0-16.369 3.1288-22.627 9.3867-12.516 12.516-12.516 32.74 0 45.256l90.51 90.51-90.51 90.51c-12.516 12.516-12.516 32.738 0 45.254s32.738 12.516 45.254 0l90.51-90.51 90.51 90.51c12.516 12.516 32.74 12.516 45.256 0s12.516-32.738 0-45.254l-90.51-90.51 90.51-90.51c12.516-12.516 12.516-32.74 0-45.256-12.516-12.516-32.74-12.516-45.256 0l-90.51 90.51-90.51-90.51c-6.2579-6.2579-14.442-9.3867-22.627-9.3867z"/></svg>
