<svg version="1.1" viewBox="0 0 640 512" xml:space="preserve" xmlns="http://www.w3.org/2000/svg"><path d="m304.26 509.95c-19.643-7.3493-33.182-23.287-35.76-42.098l-1.0748-7.8412h105.42l-1.0748 7.8412c-2.1489 15.678-12.507 30.105-27.457 38.242-10.89 5.9269-29.685 7.7363-40.055 3.8562zm-205.32-102.61c-14.472-7.3109-18.765-19.762-16.578-48.077 2.863-37.07 14.94-58.211 50.172-87.83 12.032-10.115 19.511-20.616 24.023-33.732 2.7192-7.9036 3.3789-14.609 3.38-34.36 2e-3 -33.858 2.7502-60.057 7.9133-75.437 18.313-54.554 58.197-92.857 113.29-108.79 11.682-3.3796 17.802-3.9771 40.737-3.9771 22.895 0 29.064 0.60021 40.662 3.9566 27.774 8.0372 54.424 24.174 74.368 45.03 14.251 14.903 21.007 24.758 29.726 43.365 12.02 25.651 13.939 36.194 15.353 84.376 1.115 37.997 1.6702 43.735 5.0791 52.49 5.5598 14.278 12.482 22.859 27.258 33.786 27.228 20.136 40.45 45.26 43.619 82.883 2.2149 26.297-2.39 39.135-16.614 46.321l-7.7552 3.9178h-426.87zm-35.892-173.11c-4.4126-23.36-4.396-74.727 0.0312-97.154 9.1534-46.367 29.405-88.366 59.476-123.35l11.68-13.587 15.898 16.91c23.069 24.537 22.094 21.903 12.049 32.558-30.636 32.495-50.992 86.17-50.976 134.42 3e-3 11.519 2.36 37.086 4.5091 48.929l0.97946 5.3973-20.604 5.3973c-11.332 2.9685-22.675 5.8927-25.206 6.4981-4.5883 1.0976-4.6115 1.0502-7.8356-16.018zm481.94 10.668c-11.844-3.2166-21.883-6.1971-22.309-6.6233-0.4262-0.42621 0.51543-6.9295 2.0925-14.452 8.3226-39.696 3.5986-83.732-13.198-123.03-8.4693-19.815-15.424-31.231-30.15-49.49l-11.966-14.836 36.458-36.458 11.737 13.654c30.115 35.034 50.298 76.857 59.556 123.42 2.346 11.798 3.0838 23.685 3.0222 48.692-0.0723 29.326-0.55888 34.863-4.2838 48.748-2.8081 10.468-5.0688 15.758-6.8141 15.947-1.4365 0.15531-12.302-2.3493-24.146-5.5659z" style="stroke-width:1.7412"/></svg>
