<svg version="1.1" viewBox="0 0 640 512" xml:space="preserve" xmlns="http://www.w3.org/2000/svg"><path d="m252.43 503.33c-202.76-54.6-255.8-325.34-88.427-451.38 155.2-116.86 378.91-25.881 408.65 166.19 27.711 179.03-144.59 332.48-320.22 285.19zm111.77-29.682c169.72-35.509 234.96-244.25 115.73-370.31-172.27-182.15-471.98 26.021-359.9 249.98 14.278 28.53 25.66 42.583 30.146 39.772 3.7266-2.3357 48.064-39.434 110.36-101.73l110.56-110.56h-109.34v-32.289l162.72 2.9455 2.9454 162.72h-32.289v-109.27l-109.37 109.27c-60.155 60.098-109.37 110.59-109.37 112.19 0 6.8772 58.434 37.436 85.36 44.64 35.988 9.6286 65.403 10.386 102.44 2.6379z" style="stroke-width:5.335"/></svg>
