<?xml version="1.0" encoding="UTF-8"?>
<svg version="1.1" viewBox="0 0 640 512" xml:space="preserve" xmlns="http://www.w3.org/2000/svg"><path transform="translate(208.1 58.967)" d="m25.791 29.62c0-19.825 16.057-35.882 35.882-35.882 19.825 0 35.882 16.057 35.882 35.882v132.94c7.625-6.8177 17.672-10.944 28.706-10.944 18.479 0 34.268 11.662 40.368 27.988 7.8941-8.3427 19.018-13.635 31.397-13.635 22.696 0 41.265 17.493 42.969 39.74 7.625-6.9074 17.762-11.034 28.796-11.034 23.772 0 43.059 19.287 43.059 43.059v100.47c0 63.422-51.402 114.82-114.82 114.82h-76.519c-4.4853 0-8.8809-0.26912-13.187-0.89706-49.608-5.0235-95.268-30.5-125.59-70.868l-64.588-86.118c-11.931-15.878-8.7015-38.305 7.1765-50.235 15.878-11.931 38.305-8.7015 50.235 7.1765l50.235 67.011zm100.47 236.82c0-7.8942-6.4588-14.353-14.353-14.353-7.8941 0-14.353 6.4588-14.353 14.353v86.118c0 7.8942 6.4588 14.353 14.353 14.353 7.8942 0 14.353-6.4588 14.353-14.353zm43.059-14.353c-7.8941 0-14.353 6.4588-14.353 14.353v86.118c0 7.8942 6.4588 14.353 14.353 14.353 7.8942 0 14.353-6.4588 14.353-14.353v-86.118c0-7.8942-6.4588-14.353-14.353-14.353zm71.765 14.353c0-7.8942-6.4588-14.353-14.353-14.353-7.8942 0-14.353 6.4588-14.353 14.353v86.118c0 7.8942 6.4588 14.353 14.353 14.353 7.8941 0 14.353-6.4588 14.353-14.353z" stroke-width=".89706"/><path transform="translate(208.1 58.967)" d="m306.95 9.7381c4.7013-4.7013 4.7013-12.336 0-17.037l-48.141-48.141c-4.7013-4.7013-12.336-4.7013-17.037 0-4.7013 4.7013-4.7013 12.336 0 17.037l27.606 27.606h-139.42c-6.657 0-12.035 5.3783-12.035 12.035 0 6.657 5.3783 12.035 12.035 12.035h139.42l-27.606 27.606c-4.7013 4.7013-4.7013 12.336 0 17.037 4.7013 4.7013 12.336 4.7013 17.037 0l48.141-48.141z" stroke-width=".3761"/><path transform="translate(208.1 58.967)" d="m-184.68 9.7381c-4.7013-4.7013-4.7013-12.336 0-17.037l48.141-48.141c4.7013-4.7013 12.336-4.7013 17.037 0 4.7013 4.7013 4.7013 12.336 0 17.037l-27.606 27.606h139.42c6.657 0 12.035 5.3783 12.035 12.035 0 6.657-5.3783 12.035-12.035 12.035h-139.42l27.606 27.606c4.7013 4.7013 4.7013 12.336 0 17.037-4.7013 4.7013-12.336 4.7013-17.037 0l-48.141-48.141z" stroke-width=".3761"/></svg>
