<?xml version="1.0" encoding="UTF-8"?>
<svg id="svg2352" version="1.1" viewBox="0 0 640 512" xml:space="preserve" xmlns="http://www.w3.org/2000/svg"><path id="path1-3675356291270" transform="matrix(.8 0 0 .8 214.58 122.49)" d="m131.66-153.11c-109.01 0-201.67 71.369-233.71 169.85 22.88 17.882 34.252 26.738 54.25 42.371 15.777-84.687 90.212-149.01 179.43-149.03h2e-3a182.72 182.72 0 0 1 182.54 182.55c0 73.779-44.011 137.48-107.15 166.24 16.813 13.19 34.757 27.269 53.921 42.305a246.19 246.19 0 0 0 55.654-47.341l58.274 86.428v0.0366l-57.097 5.4663c22.574 17.712 46.585 36.552 72.136 56.602l11.78-1.1279c18.044-1.7552 33.419-12.567 41.143-28.997a50.34 50.34 0 0 0-3.8257-50.164h-0.20996l-84.744-125.71a243.87 243.87 0 0 0 23.311-103.74c0-135.51-110.23-245.73-245.7-245.73zm-245.54 236.94c-0.1032 2.9193-0.15381 5.8523-0.15381 8.7964 0 37.106 8.4938 72.176 23.308 103.74l-84.744 125.71c-10.145 15.025-11.584 33.77-3.8257 50.164 7.7231 16.394 23.1 27.241 41.179 28.997l55.291 5.3027 26.609 52.446a50.376 50.376 0 0 0 45.53 27.908c16.921 0 32.507-8.2141 42.056-22.432l85.552-126.8c4.9147 0.28084 9.8286 0.73731 14.849 0.73731 5.02 0 9.9013-0.45647 14.851-0.73731l85.549 126.8c9.5486 14.218 25.135 22.432 42.056 22.432 1.0883 0 2.1774 3.7e-4 3.3008-0.10498a50.376 50.376 0 0 0 42.231-27.769l12.81-25.266-50.837-39.846-9.0478 17.827-35.635-52.847-106.81-83.718a182.72 182.72 0 0 1-175.43-137.5v-2e-3zm60.542 170.03a246.44 246.44 0 0 0 103.07 70.173l-59.153 87.693-32.893-64.805-69.297-6.6333z" fill="currentColor" stroke-width="35.105"/><path id="path29" transform="translate(-2e-6)" d="m38.8 5.1c-10.4-8.2-25.5-6.3-33.7 4.1s-6.3 25.5 4.1 33.7l592 464c10.4 8.2 25.5 6.3 33.7-4.1s6.3-25.5-4.1-33.7c-601.7-472.17-317.2-248.63-592-464z" fill="currentColor"/></svg>
