<?xml version="1.0" encoding="UTF-8"?>
<svg id="path" version="1.1" viewBox="0 0 640 512" xml:space="preserve" xmlns="http://www.w3.org/2000/svg"><path id="path1-36753562912" d="m428.76 343.91a139.88 139.88 0 0 0-33.92-13.44 125.36 125.36 0 0 0-74.854-226.02 125.49 125.49 0 0 0-119.09 86.016 125.31 125.31 0 0 0 44.237 140.01 139.88 139.88 0 0 0-33.92 13.44 157.26 157.26 0 0 1 108.8-270.9 157.41 157.41 0 0 1 146.05 98.688 157.18 157.18 0 0 1-37.248 172.24h-0.0512zm-250.42 25.242a198.25 198.25 0 0 1 141.64-337.15 198.48 198.48 0 0 1 182.94 121.52 198.2 198.2 0 0 1-41.293 215.63c7.552 7.68 14.259 16.102 20.045 25.165a230.22 230.22 0 0 0-161.69-394.32 230.48 230.48 0 0 0-213.2 142.95 230.14 230.14 0 0 0 51.507 251.39c5.7856-9.088 12.493-17.536 20.045-25.19zm182.12-10.675h-80.947a116.99 116.99 0 0 0-113.13 120.27v8.704a24.371 24.371 0 0 0 24.09 24.55h259.02a24.422 24.422 0 0 0 24.09-24.627v-8.6528a116.86 116.86 0 0 0-113.13-120.27zm81.126 121.65h-243.2v-1.408a84.992 84.992 0 0 1 81.126-88.32h80.947a85.069 85.069 0 0 1 81.126 88.32v1.3824zm-121.6-337.02a87.501 87.501 0 0 0-85.786 104.47 87.398 87.398 0 0 0 119.27 63.718 87.45 87.45 0 0 0 53.99-80.768 87.501 87.501 0 0 0-87.475-87.424zm0 142.85a55.501 55.501 0 0 1-54.4-66.253 55.45 55.45 0 0 1 75.622-40.397 55.475 55.475 0 0 1 34.253 51.2 55.475 55.475 0 0 1-55.475 55.526z" stroke-width="25.6"/></svg>
