<svg version="1.1" viewBox="0 0 640 512" xml:space="preserve" xmlns="http://www.w3.org/2000/svg"><path d="m128 32c-30.817 0-56.594 21.877-62.646 50.92 23.125 18.098 52.111 40.8 63.076 49.359-0.19008-1.4134-0.42969-2.813-0.42969-4.2793 0-17.7 14.3-32 32-32h320c17.7 0 32 14.3 32 32s-14.3 32-32 32h-316.14c31.844 24.879 138.48 108.49 389.09 305.14 14.074-11.748 23.051-29.406 23.051-49.137v-320c0-35.3-28.7-64-64-64h-384zm-64 110.93v273.07c0 35.3 28.7 64 64 64h366.05l-430.05-337.07z"/><path d="m38.8 5.1c-10.4-8.2-25.5-6.3-33.7 4.1s-6.3 25.5 4.1 33.7l592 464c10.4 8.2 25.5 6.3 33.7-4.1s6.3-25.5-4.1-33.7c-601.7-472.17-317.2-248.63-592-464z"/></svg>
