<?xml version="1.0" encoding="UTF-8"?>
<svg version="1.1" viewBox="0 0 640 512" xml:space="preserve" xmlns="http://www.w3.org/2000/svg"><path d="m225.7 160c-17.02 0-33.697 3.4786-49.182 9.9121 20.658 16.151 153.86 120.67 229.89 180.29 21.162-3.4584 41.342-11.879 58.795-24.707l126.6-93.301h-0.09961c17.8-13.1 21.6-38.098 8.5-55.898-13.1-17.8-38.1-21.6-55.9-8.5l-119.7 88.199h-120.6c-8.8 0-16-7.2-16-16s7.2-16 16-16h16 64c17.7 0 32-14.3 32-32s-14.3-32-32-32h-64-16-78.301zm-91.965 37.594-32.936 26.406h-36.799c-17.7 0-32 14.3-32 32v64c0 17.7 14.3 32 32 32h160 106.74l-197-154.41z"/><path d="m38.8 5.1c-10.4-8.2-25.5-6.3-33.7 4.1s-6.3 25.5 4.1 33.7l592 464c10.4 8.2 25.5 6.3 33.7-4.1s6.3-25.5-4.1-33.7c-601.7-472.17-317.2-248.63-592-464z"/></svg>
