<?xml version="1.0" encoding="UTF-8"?>
<svg id="svg2352" version="1.1" viewBox="0 0 640 512" xml:space="preserve" xmlns="http://www.w3.org/2000/svg"><path id="path24" d="m319.98 0a118.54 118.54 0 0 0-83.797 34.693l-102.07 102.03c4.3246 3.3759 20.851 16.324 25.438 19.906l99.283-99.285a85.923 85.923 0 0 1 61.145-25.316h0.0254a85.821 85.821 0 0 1 61.092 25.369l137.48 137.46a86.461 86.461 0 0 1 0 122.29l-67.828 67.842c10.125 7.9426 14.092 11.048 25.42 19.936l65.111-65.123a118.57 118.57 0 0 0 0-167.64l-137.51-137.46a118.54 118.54 0 0 0-83.795-34.693zm-22.014 136.63 3.7598 131.47c6.6563 5.2163 27.852 21.848 36.004 28.238l4.5684-159.71zm-198.15 34.373-1.1699 1.1699a118.75 118.75 0 0 0 0 167.64l137.53 137.48a117.88 117.88 0 0 0 83.797 34.697 117.88 117.88 0 0 0 83.848-34.723l38.115-38.121-25.43-19.932-35.416 35.424a88.665 88.665 0 0 1-122.26 0l-137.51-137.51a86.487 86.487 0 0 1 0-122.29l3.9199-3.9199zm219.66 172.16c-4.5808 0.0958-9.0711 1.3569-12.977 3.7246-4.1001 2.4088-7.5328 5.8178-9.916 9.918-2.4601 4.1001-3.7172 8.7883-3.666 13.555a26.471 26.471 0 0 0 3.666 13.762 27.983 27.983 0 0 0 9.916 9.8398 26.292 26.292 0 0 0 13.658 3.6387 26.702 26.702 0 0 0 13.736-3.6641c4.1001-2.4088 7.5341-5.8161 9.9942-9.8906 2.4857-4.1514 3.793-8.8933 3.793-13.711a27.573 27.573 0 0 0-1.0918-5.9199z" stroke-width="25.626"/><path id="path26" d="m38.8 5.1c-10.4-8.2-25.5-6.3-33.7 4.1s-6.3 25.5 4.1 33.7l592 464c10.4 8.2 25.5 6.3 33.7-4.1s6.3-25.5-4.1-33.7c-601.7-472.17-317.2-248.63-592-464z"/></svg>
