<?xml version="1.0" encoding="UTF-8"?>
<svg id="svg2352" version="1.1" viewBox="0 0 640 512" xml:space="preserve" xmlns="http://www.w3.org/2000/svg"><path id="path9" d="m38.8 5.1c-10.4-8.2-25.5-6.3-33.7 4.1s-6.3 25.5 4.1 33.7l592 464c10.4 8.2 25.5 6.3 33.7-4.1s6.3-25.5-4.1-33.7c-601.7-472.17-317.2-248.63-592-464z"/><path id="path1-09" d="m160 32c-35.3 0-64 28.7-64 64v10.9c22.735 17.769 86.605 67.821 111.02 86.922 2.8164-1.1472 5.8454-1.8223 8.9844-1.8223h208c9.5 0 18.2 5.7004 22 14.4s2.0996 18.9-4.4004 25.9l-78.178 84.191c44.339 34.766 74.167 58.136 170.55 133.76 6.3151-9.917 10.025-21.648 10.025-34.256v-320c0-35.3-28.7-64-64-64h-320zm-64 136.01v247.99c0 35.3 28.7 64 64 64h320c4.2679 0 8.4328-0.43828 12.469-1.2383l-163.88-128.44c-2.7213 1.0469-5.6127 1.6816-8.5938 1.6816-6.7 0-13-2.7992-17.6-7.6992l-49.51-53.316-156.89-122.97z"/></svg>
