<svg version="1.1" viewBox="0 0 640 512" xml:space="preserve" xmlns="http://www.w3.org/2000/svg"><path d="m561.97 322.09h-32.812l-17.906-76.406q-3.2812-13.5-5.5312-28.219-2.25 12.281-3.6562 18.75-1.4062 6.375-19.969 85.875h-32.812l-34.031-132.09h28.031l19.125 85.312 4.3125 20.625q2.625-13.031 5.0625-24.844 2.5312-11.906 18.75-81.094h30.938l16.688 70.312q1.9688 7.875 6.6562 35.625l2.3438-10.875 4.9688-21.562 15.938-73.5h28.031z" style="stroke-linecap:square;stroke-linejoin:round;stroke-miterlimit:3"/><path d="m338.28 211.38v40.875h67.594v21.375h-67.594v48.469h-27.656v-132.09h97.406v21.375z" style="stroke-linecap:square;stroke-linejoin:round;stroke-miterlimit:3"/><path d="m290.28 284.03q0 19.406-14.438 29.719-14.344 10.219-42.188 10.219-25.406 0-39.844-9t-18.562-27.281l26.719-4.4062q2.7188 10.5 10.594 15.281 7.875 4.6875 21.844 4.6875 28.969 0 28.969-17.625 0-5.625-3.375-9.2812-3.2812-3.6562-9.375-6.0938-6-2.4375-23.156-5.9062-14.812-3.4688-20.625-5.5312-5.8125-2.1562-10.5-4.9688-4.6875-2.9062-7.9688-6.9375t-5.1562-9.4688q-1.7812-5.4375-1.7812-12.469 0-17.906 13.406-27.375 13.5-9.5625 39.188-9.5625 24.562 0 36.844 7.6875 12.375 7.6875 15.938 25.406l-26.812 3.6562q-2.0625-8.5312-8.4375-12.844-6.2812-4.3125-18.094-4.3125-25.125 0-25.125 15.75 0 5.1562 2.625 8.4375 2.7188 3.2812 7.9688 5.625 5.25 2.25 21.281 5.7188 19.031 4.0312 27.188 7.5 8.25 3.375 13.031 7.9688 4.7812 4.5 7.3125 10.875 2.5312 6.2812 2.5312 14.531z" style="stroke-linecap:square;stroke-linejoin:round;stroke-miterlimit:3"/><path d="m124.34 322.09-57.562-101.72q1.6875 14.812 1.6875 23.812v77.906h-24.562v-132.09h31.594l58.406 102.56q-1.6875-14.156-1.6875-25.781v-76.781h24.562v132.09z" style="stroke-linecap:square;stroke-linejoin:round;stroke-miterlimit:3"/><path d="m32.033 156c-17.657 0-32.033 14.376-32.033 32.033v135.94c0 17.657 14.376 32.033 32.033 32.033h575.94c17.657 0 32.035-14.376 32.035-32.033v-135.94c0-17.657-14.378-32.033-32.035-32.033zm0 10.365h575.94c12.094 0 21.67 9.574 21.67 21.668v135.94c0 12.094-9.5759 21.668-21.67 21.668h-575.94c-12.094 0-21.668-9.574-21.668-21.668v-135.94c0-12.094 9.574-21.668 21.668-21.668z" style="-inkscape-stroke:none;color:#000000;stroke-linecap:square;stroke-linejoin:round;stroke-miterlimit:3"/></svg>
