<svg version="1.1" viewBox="0 0 640 512" xml:space="preserve" xmlns="http://www.w3.org/2000/svg"><g><path d="m38.8 5.1c-10.4-8.2-25.5-6.3-33.7 4.1s-6.3 25.5 4.1 33.7l592 464c10.4 8.2 25.5 6.3 33.7-4.1s6.3-25.5-4.1-33.7c-601.7-472.17-317.2-248.63-592-464z"/><path d="m320 0c-21.785 0-39.385 17.6-39.385 39.385v177.23h-44.537c15.484 12.122 91.927 72.107 123.31 96.711v-17.941h177.23c21.785 0 39.385-17.6 39.385-39.385 0-21.785-17.6-39.385-39.385-39.385h-177.23v-177.23c0-21.785-17.6-39.385-39.385-39.385zm-216.62 216.62c-21.785 0-39.385 17.6-39.385 39.385 0 21.785 17.6 39.385 39.385 39.385h155.12l-100.5-78.77h-54.623zm177.23 96.098v159.9c0 21.785 17.6 39.385 39.385 39.385 21.785 0 39.385-17.6 39.385-39.385v-98.164l-78.77-61.738z" style="stroke-width:1.2308"/></g></svg>
