<svg version="1.1" viewBox="0 0 640 512" xml:space="preserve" xmlns="http://www.w3.org/2000/svg"><path d="m96 32c-23.52 0-44.055 12.778-55.178 31.723 77.844 60.967 128.22 100.39 167.04 130.76l10.643-21.283c4.1-8.1 12.4-13.299 21.5-13.299s17.4 5.0988 21.5 13.299v0.10156l52.031 104.06c9.3286 7.3114 35.077 27.514 47.162 36.99-5.5438-10.206-8.6934-21.907-8.6934-34.352 0-39.8 32.2-72 72-72 8.4 0 16.5 1.3996 24 4.0996v-28.1c0-13.3 10.7-24 24-24s24 10.7 24 24v96 48c0 13.3-10.7 24-24 24-6.6 0-12.6-2.7-17-7-9.4 4.5-19.9 7-31 7-6.3927 0-12.556-0.91314-18.455-2.4727 51.851 40.667 58.004 45.455 161.02 126.29 24.176-9.1487 41.434-32.47 41.434-59.818v-320c0-35.3-28.7-64-64-64h-448zm-64 85.852v298.15c0 35.3 28.7 64 64 64h398.05l-168.62-132.16c-0.85532 0.57766-1.6794 1.1903-2.627 1.6641-11.8 5.9-26.301 1.1008-32.201-10.699l-5.4004-10.801h-90.398l-5.4004 10.699c-5.9 11.9-20.301 16.701-32.201 10.701s-16.699-20.301-10.699-32.201l39.373-78.744-153.87-120.6zm392 138.15a24 24 0 0 0 0 48 24 24 0 0 0 0-48zm-199.54 12.701-5.6621 11.299h20.078l-14.416-11.299z"/><path d="m38.8 5.1c-10.4-8.2-25.5-6.3-33.7 4.1s-6.3 25.5 4.1 33.7l592 464c10.4 8.2 25.5 6.3 33.7-4.1s6.3-25.5-4.1-33.7c-601.7-472.17-317.2-248.63-592-464z"/></svg>
