<svg version="1.1" viewBox="0 0 640 512" xml:space="preserve" xmlns="http://www.w3.org/2000/svg"><path d="m1.5e-6 241.1c0-80.1 65-145.1 145.1-145.1 38.5 0 75.4 15.3 102.6 42.5l72.3 72.2 72.2-72.2c27.3-27.2 64.2-42.5 102.7-42.5 80.1 0 145.1 65 145.1 145.1v29.7c0 80.2-65 145.2-145.1 145.2-38.5 0-75.4-15.3-102.6-42.5l-72.3-72.2-72.2 72.2c-27.3 27.2-64.2 42.5-102.7 42.5-80.1 0-145.1-65-145.1-145.1zm274.7 14.9-72.2-72.2c-15.2-15.2-35.9-23.8-57.4-23.8-44.8 0-81.1 36.3-81.1 81.1v29.7c0 44.8 36.3 81.1 81.1 81.1 21.5 0 42.2-8.5 57.4-23.8zm90.5 0 72.2 72.2c15.2 15.2 35.9 23.8 57.4 23.8 44.8 0 81.1-36.3 81.1-81.1v-29.8c0-44.8-36.3-81.1-81.1-81.1-21.5 0-42.2 8.5-57.4 23.8l-72.1 72.2z"/></svg>
