<svg version="1.1" viewBox="0 0 640 512" xml:space="preserve" xmlns="http://www.w3.org/2000/svg"><path d="m610.12 37.514c-0.9643-0.0202-1.961-7.1e-4 -2.9884 0.0457h-215.58c-40.617 8.486-16.44 40.543-16.44 40.543l46.33 47.63-70.991 70.985-71.733-71.733c-29.889-29.889-59.031-0.74857-59.031-0.74857l-206.8 206.8c-29.328 29.328 0.55825 59.215 0.55825 59.215l71.733 71.74c28.582 28.582 57.908-0.74872 57.908-0.74872l105.18-105.18 72.39 70.8c29.843 29.843 58.19 1.4974 58.19 1.4974l175.59-172.99 44.089 45.955s34.873 23.975 41.095-15.697l0.37427-216.87s1e-3 -30.691-29.89-31.25zm-178.68 41.213h166.44v166.44l-47.078-47.078-201.75 201.75-100.87-100.87-134.31 134.31-71.733-71.733 206.8-206.8 100.32 100.32 129.27-129.27z" style="paint-order:normal;stroke-width:12.71"/></svg>
