<?xml version="1.0" encoding="UTF-8"?>
<svg id="svg2352" version="1.1" viewBox="0 0 640 512" xml:space="preserve" xmlns="http://www.w3.org/2000/svg"><path id="path1-36753562912709" d="m309.85 507.79c5.6155 5.6155 14.735 5.6155 20.351 0l71.879-71.879c5.6155-5.6155 5.6155-14.735 0-20.351-5.6155-5.6155-14.735-5.6155-20.351 0l-47.35 47.35v-166.53c0-7.9516-6.4241-14.376-14.376-14.376-7.9516 0-14.376 6.4241-14.376 14.376v166.53l-47.35-47.35c-5.6155-5.6155-14.735-5.6155-20.351 0-5.6155 5.6155-5.6155 14.735 0 20.351l71.879 71.879z" stroke-width=".44924"/><path id="path28" d="m309.85 4.2116c5.6155-5.6155 14.735-5.6155 20.351 0l71.879 71.879c5.6155 5.6155 5.6155 14.735 0 20.351-5.6155 5.6155-14.735 5.6155-20.351 0l-47.35-47.35v166.53c0 7.9516-6.4242 14.376-14.376 14.376s-14.376-6.4241-14.376-14.376v-166.53l-47.35 47.35c-5.6155 5.6155-14.735 5.6155-20.351 0-5.6155-5.6155-5.6155-14.735 0-20.351l71.879-71.879z" stroke-width=".44924"/></svg>
