<?xml version="1.0" encoding="UTF-8"?>
<svg id="path" version="1.1" viewBox="0 0 640 512" xml:space="preserve" xmlns="http://www.w3.org/2000/svg"><path id="path1-093" d="m306.5 393.97a27.983 27.983 0 0 1-9.9172-9.8403 26.471 26.471 0 0 1-3.6645-13.761c-0.0512-4.7664 1.2044-9.4559 3.6645-13.556 2.3832-4.1001 5.8171-7.5084 9.9172-9.9172 4.1001-2.4857 8.8409-3.7926 13.659-3.767a26.907 26.907 0 0 1 13.761 3.6132 27.573 27.573 0 0 1 13.761 23.601c0 4.8176-1.3069 9.5584-3.7926 13.71-2.4601 4.0745-5.8939 7.4827-9.9941 9.8916a26.702 26.702 0 0 1-13.735 3.6645 26.292 26.292 0 0 1-13.659-3.6389zm-3.6132-85.308-4.9202-172.03h44.333l-4.9202 172.03zm17.092 203.34a117.88 117.88 0 0 1-83.796-34.697l-137.53-137.48a118.75 118.75 0 0 1 0-167.64l137.53-137.48a118.54 118.54 0 0 1 167.59 0l137.51 137.46a118.57 118.57 0 0 1 0 167.64l-137.46 137.48a117.88 117.88 0 0 1-83.848 34.723zm0-479.97a85.923 85.923 0 0 0-61.143 25.318l-137.51 137.51a86.487 86.487 0 0 0 0 122.29l137.51 137.51a88.665 88.665 0 0 0 122.26 0l137.48-137.51a86.461 86.461 0 0 0 0-122.29l-137.48-137.46a85.821 85.821 0 0 0-61.092-25.37z" stroke-width="25.626"/></svg>
