<?xml version="1.0" encoding="UTF-8"?>
<svg version="1.1" viewBox="0 0 640 512" xml:space="preserve" xmlns="http://www.w3.org/2000/svg"><path transform="translate(3.0666 -27.521)" d="m477.6 132.58c-3.4911-9.2853-12.405-15.451-22.284-15.451-9.8793 0-18.793 6.1652-22.284 15.451l-101.17 269.79h-19.165c-13.148 0-23.77 10.622-23.77 23.77 0 13.148 10.622 23.77 23.77 23.77h71.31c13.148 0 23.77-10.622 23.77-23.77 0-13.148-10.622-23.77-23.77-23.77h-1.3383l13.371-35.655h118.55l13.371 35.655h-1.3383c-13.148 0-23.77 10.622-23.77 23.77 0 13.148 10.622 23.77 23.77 23.77h71.31c13.148 0 23.77-10.622 23.77-23.77 0-13.148-10.622-23.77-23.77-23.77h-19.165zm19.165 186.6h-82.898l41.449-110.61z" stroke-width=".74282"/><path transform="translate(3.0666 -27.521)" d="m155.98 208.03c-2.6611-7.0776-9.4555-11.777-16.986-11.777-7.5304 0-14.325 4.6994-16.986 11.777l-77.117 205.65h-14.608c-10.022 0-18.118 8.0966-18.118 18.119 0 10.022 8.0968 18.119 18.118 18.119h54.356c10.022 0 18.119-8.0968 18.119-18.119 0-10.022-8.0966-18.119-18.119-18.119h-1.0201l10.192-27.178h90.366l10.192 27.178h-1.02c-10.022 0-18.119 8.0966-18.119 18.119 0 10.022 8.0968 18.119 18.119 18.119h54.356c10.022 0 18.119-8.0968 18.119-18.119 0-10.022-8.0966-18.119-18.119-18.119h-14.608zm14.608 142.23h-63.188l31.594-84.308z" stroke-width=".5662"/></svg>
