<svg version="1.1" viewBox="0 0 640 512" xml:space="preserve" xmlns="http://www.w3.org/2000/svg"><path d="m282.32 504.59c-87.663-31.929-157.3-82.242-183.46-135.51-20.601-31.746-14.476-55.18-16.287-159.91-1.3899-109.9-0.40038-132 6.3717-142.33 6.8225-10.412 24.824-16.304 120.8-39.532l112.78-27.297 110.43 27.552c60.736 15.154 113.95 31.076 118.26 35.382 6.6398 6.64 7.5845 29.04 6.2129 147.32-1.5227 131.29-2.2836 140.73-12.952 160.66-24.738 46.203-76.329 87.132-149.7 118.77-57.804 24.922-77.722 27.564-112.45 14.914zm122.21-55.813c54.394-26.637 96.494-63.315 112.08-97.64 9.0908-20.028 10.16-35.024 10.263-143.98l0.11417-121.63-19.649-5.1716c-10.806-2.8444-57.382-14.605-103.5-26.134l-83.85-20.963-83.827 20.965c-46.104 11.53-92.855 23.341-103.89 26.246l-20.061 5.2812 1.7223 124.14c-0.42496 53.345-6.0466 121.88 16.049 148.51 25.963 44.167 90.72 89.569 162.7 114.07 33.381 11.363 45.545 8.787 111.85-23.684z" style="stroke-width:5.2399"/></svg>
