<?xml version="1.0" encoding="UTF-8"?>
<svg version="1.1" viewBox="0 0 640 512" xml:space="preserve" xmlns="http://www.w3.org/2000/svg">
 <!--! Font Awesome Pro 6.4.0 by @fontawesome - https://fontawesome.com License - https://fontawesome.com/license (Commercial License) Copyright 2023 Fonticons, Inc. --><path transform="translate(.00058797 .0025681)" d="m551.23 230.02-10.737-10.737c-10.163-10.163-10.163-26.585 0-36.748s26.585-10.163 36.748 0l55.18 55.18c5.0529 5.0529 7.5219 11.656 7.5793 18.259v0.11484c-0.0574 3.5026-0.74645 6.8329-1.9523 9.8759-1.2632 3.1006-3.1581 5.9142-5.627 8.3834l-55.122 55.122c-10.163 10.163-26.585 10.163-36.748 0-10.163-10.163-10.163-26.585 0-36.748l10.68-10.68-78.984-0.0574c-14.355 0-26.011-11.656-26.011-26.011 0-14.355 11.656-26.011 26.011-26.011z" stroke-width=".81203"/><path transform="translate(.00058797 .0025681)" d="m416 104v304c0 17.7-42.9 40-95.999 40-53.099 0-95.999-22.3-95.999-40v-304c0-17.7 42.9-40 95.999-40 53.099 0 95.999 22.3 95.999 40z" stroke-width="1.7321"/><path transform="translate(.00058797 .0025681)" d="m88.77 230.02 10.737-10.737c10.163-10.163 10.163-26.585 0-36.748s-26.585-10.163-36.748 0l-55.18 55.18c-5.0529 5.0529-7.5219 11.656-7.5793 18.259v0.11484c0.057411 3.5026 0.74645 6.8329 1.9523 9.8759 1.2632 3.1006 3.1581 5.9142 5.627 8.3834l55.122 55.122c10.163 10.163 26.585 10.163 36.748 0 10.163-10.163 10.163-26.585 0-36.748l-10.68-10.68 78.984-0.0574c14.355 0 26.011-11.656 26.011-26.011 0-14.355-11.656-26.011-26.011-26.011z" stroke-width=".81203"/></svg>
