<svg version="1.1" viewBox="0 0 640 512" xml:space="preserve" xmlns="http://www.w3.org/2000/svg"><path d="m303.62 509.29c-19.879-7.1009-33.719-23.623-36.674-43.78l-1.0714-7.3099h108.42l-1.0556 7.3099c-4.6725 32.357-39.787 54.438-69.623 43.78zm-208.02-104.18c-18.316-5.7127-23.975-21.019-20.32-54.964 3.6566-33.963 17.515-59.109 42.979-77.986 29.274-21.702 35.597-36.722 35.672-84.75 0.0262-16.539 0.71937-35.264 1.5405-41.613 8.8444-68.372 53.654-120.72 120.76-141.06 20.843-6.3192 66.876-6.3192 87.719 0 59.371 18 99.643 58.868 116.26 117.98 2.64 9.393 3.5144 18.705 4.6964 50.015 1.7581 46.571 2.9244 55.429 8.8952 67.556 6.0918 12.373 13.363 20.645 27.831 31.658 27.17 20.683 40.204 45.166 43.445 81.61 2.8688 32.253-2.7454 46.198-20.751 51.545-11.141 3.3086-438.12 3.3203-448.72 0.0123zm436.83-38.861c-0.12866-30.848-10.222-51.329-34.721-70.46-34.713-27.106-45.273-51.892-45.273-106.27 0-48.056-4.1141-67.798-19.397-93.079-44.618-73.807-145.07-86.096-205.97-25.198-30.088 30.088-37.488 51.692-39.241 114.56-1.0463 37.516-1.5699 43.544-4.6112 53.093-7.513 23.59-18.98 39.55-41.028 57.102-25.866 20.592-34.472 37.316-34.472 66.992v10.562h424.74l-0.0305-7.3099z" style="stroke-width:1.5389"/><path d="m352 80c0-17.7-14.3-32-32-32s-32 14.3-32 32v144h-144c-17.7 0-32 14.3-32 32s14.3 32 32 32h144v144c0 17.7 14.3 32 32 32s32-14.3 32-32v-144h144c17.7 0 32-14.3 32-32s-14.3-32-32-32h-144z" style="display:none"/><path d="m96 32c-35.3 0-64 28.7-64 64v320c0 35.3 28.7 64 64 64h448c35.3 0 64-28.7 64-64v-320c0-35.3-28.7-64-64-64zm165.5 141.3 72 144c5.9 11.9 1.1 26.3-10.7 32.2s-26.3 1.1-32.2-10.7l-5.4-10.8h-90.4l-5.4 10.7c-5.9 11.9-20.3 16.7-32.2 10.7s-16.7-20.3-10.7-32.2l72-144c4.1-8.1 12.4-13.3 21.5-13.3s17.4 5.1 21.5 13.3zm-21.5 64.4-21.2 42.3h42.3zm184 18.3a24 24 0 1 0 0 48 24 24 0 1 0 0-48zm24-43.9v-28.1c0-13.3 10.7-24 24-24s24 10.7 24 24v144c0 13.3-10.7 24-24 24-6.6 0-12.6-2.7-17-7-9.4 4.5-19.9 7-31 7-39.8 0-72-32.2-72-72s32.2-72 72-72c8.4 0 16.5 1.4 24 4.1z" style="display:none"/></svg>
