<svg version="1.1" viewBox="0 0 640 512" xml:space="preserve" xmlns="http://www.w3.org/2000/svg"><g><g transform="matrix(26.257 0 0 26.257 28.135 -19.692)" style="fill:none"><path d="m15.305 6.5352a0.75 0.75 0 0 0-0.75 0.75v2.7617a0.75 0.75 0 0 0 0.75 0.75 0.75 0.75 0 0 0 0.75-0.75v-2.7617a0.75 0.75 0 0 0-0.75-0.75z" style="-inkscape-stroke:none;color:#000000;fill:currentColor;stroke-linecap:round;stroke-linejoin:round;stroke-miterlimit:10"/><path d="m11.621 4.6914a0.75 0.75 0 0 0-0.75004 0.74996v5.8703c0.41973 0.3292 0.8271 0.64865 1.3178 1.0336a0.75 0.75 0 0 0 0.18217-0.45666v-6.4473a0.75 0.75 0 0 0-0.74996-0.74996z" style="-inkscape-stroke:none;color:#000000;fill:currentColor;stroke-linecap:round;stroke-linejoin:round;stroke-miterlimit:10"/><path d="m7.9355 6.5332a0.75 0.75 0 0 0-0.74996 0.74996v1.139c0.40936 0.32071 0.90331 0.7078 1.5 1.1756v-2.3146a0.75 0.75 0 0 0-0.75004-0.74996z" style="-inkscape-stroke:none;color:#000000;fill:currentColor;stroke-linecap:round;stroke-linejoin:round;stroke-miterlimit:10"/><path d="m6.9746 0.75c-2.3738 0-4.4344 1.263-5.5665 3.1527 0.42555 0.33331 0.85841 0.67238 1.1769 0.92172 0.83704-1.5481 2.4676-2.5744 4.3895-2.5744h8.2832c2.8058 0 4.9922 2.1864 4.9922 4.9922v3.2031c0 2.5358-1.7881 4.5597-4.203 4.9269 0.43248 0.33933 1.0016 0.78585 1.4728 1.1556 2.474-0.91466 4.2303-3.2813 4.2303-6.0825v-3.2031c0-3.599-2.8932-6.4922-6.4922-6.4922zm-6.2975 4.9038c-0.12668 0.50801-0.19474 1.0398-0.19474 1.5884v3.2031c0 3.599 2.8932 6.4921 6.4922 6.4921h1.127v2.5625a0.75008 0.75008 0 0 0 1.2812 0.53127l3.0919-3.0938h2.5988l-1.9137-1.5h-0.99566a0.75008 0.75008 0 0 0-0.52933 0.21877l-2.0332 2.0332v-1.5019a0.75008 0.75008 0 0 0-0.74996-0.75004h-1.877c-2.8058 0-4.9922-2.1863-4.9922-4.9921v-3.2031c0-0.18384 0.010531-0.36464 0.028862-0.54272z" style="-inkscape-stroke:none;color:#000000;fill:currentColor;stroke-linecap:round;stroke-linejoin:round;stroke-miterlimit:10"/></g><path d="m38.8 5.1c-10.4-8.2-25.5-6.3-33.7 4.1s-6.3 25.5 4.1 33.7l592 464c10.4 8.2 25.5 6.3 33.7-4.1s6.3-25.5-4.1-33.7c-601.7-472.17-317.2-248.63-592-464z"/></g></svg>
