<?xml version="1.0" encoding="UTF-8"?>
<svg id="svg2352" version="1.1" viewBox="0 0 640 512" xml:space="preserve" xmlns="http://www.w3.org/2000/svg"><path id="path2" transform="translate(15.02 5.6016)" d="m489.44 143.68c-4.0192 5e-4 -8.0392 1.5509-11.139 4.6504l-165.8 165.73a7.0007 7.0007 0 0 1-9.8965 0l-74.871-74.799a7.0007 7.0007 0 0 1-4e-3 -2e-3c-6.1999-6.1999-16.079-6.1999-22.279 0-6.2 6.2-6.1999 16.079 0 22.279l90.926 90.924c6.2 6.2 16.079 6.1999 22.279 0l181.85-181.85c6.1999-6.1999 6.1999-16.079 0-22.279a7.0007 7.0007 0 0 1-0.0371-0.0879c-3.0857-3.0335-7.055-4.562-11.031-4.5625z" stop-color="#000000" stroke-linecap="round" stroke-linejoin="round" style="paint-order:fill markers stroke"/><path id="path1" transform="translate(15.02 5.6016)" d="m393.44 143.68c-4.0199 0-8.0406 1.5504-11.141 4.6504l-111.44 111.39 22.277 22.256 111.37-111.37c6.1999-6.2 6.1999-16.079 0-22.279a7.0007 7.0007 0 0 1-0.0371-0.0879c-3.0862-3.034-7.0563-4.5625-11.033-4.5625zm-272.85 90.926c-4.0198 0-8.0387 1.5504-11.139 4.6504-6.2 6.2-6.1999 16.079 0 22.279l90.926 90.924c6.1999 6.2 16.079 6.2 22.279 0l25.545-25.545-22.275-22.277-9.4238 9.4199a7.0007 7.0007 0 0 1-9.8965 0l-74.871-74.799a7.0007 7.0007 0 0 1-4e-3 -2e-3c-3.1-3.1-7.1208-4.6504-11.141-4.6504z" stop-color="#000000" stroke-linecap="round" stroke-linejoin="round"/></svg>
