<?xml version="1.0" encoding="UTF-8"?>
<svg id="svg2352" version="1.1" viewBox="0 0 640 512" xml:space="preserve" xmlns="http://www.w3.org/2000/svg"><path id="path31" transform="matrix(30.487 0 0 30.487 .61027 -61.059)" d="m11.643 2.0028a1.64 1.64 0 0 0-0.62494 0.12524 1.64 1.64 0 0 0-1.014 1.518v2.593c-1.6191 0.13306-3.0095 0.6258-4.1797 1.3795 0.35368 0.27652 0.81201 0.63526 1.5213 1.1911 0.99494-0.51171 2.1746-0.80855 3.5594-0.80855h0.90003v-3.977l5.979 5.976-3.9214 3.9208c0.44868 0.35203 0.92288 0.72407 1.4243 1.1175l4.4032-4.4013a0.9 0.9 0 0 0 0-1.273l-6.89-6.887a1.64 1.64 0 0 0-1.1571-0.4742zm-7.0983 6.6207c-2.2773 2.153-3.4255 5.4616-3.5447 8.7525a1.353 1.353 0 0 0 0.86198 1.32 1.35 1.35 0 0 0 1.531-0.36401l0.33403-0.38099c1.705-1.944 3.323-3.791 6.277-4.103v2.509c0 0.667 0.398 1.262 1.014 1.518a1.638 1.638 0 0 0 1.783-0.34902v-2e-3h-1e-3l1.3627-1.3621-1.4248-1.1167-0.93091 0.93078h-1e-3v-1.6612l-2.7428-2.1497c-2.8473 0.53375-4.6256 2.2784-6.1582 3.9959 0.30682-2.3943 1.2532-4.8377 3.0674-6.4184zm6.8696 3.3766c0.12765 0.10013 0.2582 0.20255 0.39175 0.30731v-0.30731z" fill="currentColor"/><path id="path33" d="m38.8 5.1c-10.4-8.2-25.5-6.3-33.7 4.1s-6.3 25.5 4.1 33.7l592 464c10.4 8.2 25.5 6.3 33.7-4.1s6.3-25.5-4.1-33.7c-601.7-472.17-317.2-248.63-592-464z"/></svg>
