<svg version="1.1" viewBox="0 0 640 512" xml:space="preserve" xmlns="http://www.w3.org/2000/svg"><path d="m305.8 506.2c-12.748-8.6373-23.998-19.087-32.636-30.313l-7.71-10.02 14.57-6.8279c8.0137-3.7554 20.378-10.843 27.476-15.749l12.905-8.9214 12.905 8.9214c7.0979 4.9068 19.462 11.994 27.476 15.749l14.57 6.8279-7.71 10.02c-14.469 18.804-37.11 36.109-47.241 36.109-4.0415 0-8.8904-1.9244-14.605-5.7964zm-144.03-63.885c-21.539-3.8876-24.45-7.1521-28.401-31.843-8.1681-51.056 9.4821-106.4 45.722-143.36l11.02-11.239-11.811-12.185c-32.29-33.311-47.903-74.64-46.083-121.98 0.96825-25.183 4.0196-38.776 10.06-44.817 9.854-9.8541 63.253-12.31 93.206-4.2864 26.779 7.1731 54.113 22.78 73.933 42.214l10.986 10.772 10.986-10.772c19.82-19.433 47.154-35.041 73.933-42.214 18.942-5.0739 54.747-6.3161 74.526-2.5856 23.711 4.4721 27.241 10.815 28.766 51.689 1.768 47.399-13.84 88.689-46.109 121.98l-11.811 12.185 11.02 11.239c36.514 37.24 53.678 91.439 45.777 144.55-3.5805 24.066-8.1745 28.199-35.387 31.835-49.844 6.6593-100.97-9.5747-137.35-43.617l-14.428-13.499-13.265 12.673c-38.273 36.566-92.662 52.761-145.29 43.262zm176.31-111.29c39.109-10.187 64.782-47.977 58.3-85.817-10.694-62.433-85.718-87.389-129.9-43.209-54.341 54.341-2.2275 148.26 71.598 129.03zm-238.99-28.892c-18.417-14.506-34.654-36.218-34.654-46.34 0-8.0778 10.147-22.704 26.575-38.305 19.579-18.593 18.442-18.539 26.731-1.2638 3.8664 8.0579 10.909 20.261 15.649 27.119l8.6193 12.468-9.7085 14.44c-5.3397 7.9419-12.275 20.037-15.413 26.877s-6.3026 12.437-7.0341 12.437c-0.73149-5.8e-4 -5.5759-3.3453-10.765-7.4327zm424.81-5.0039c-3.1373-6.8407-10.073-18.936-15.413-26.877l-9.7085-14.44 8.6192-12.468c4.7406-6.8575 11.783-19.061 15.649-27.119 8.2894-17.276 7.1524-17.329 26.731 1.2638 27.417 26.037 31.45 37.661 19.199 55.339-10.188 14.702-33.103 36.74-38.202 36.74-0.64432 0-3.7384-5.5969-6.8756-12.438zm-207-221.6c-5.3339-5.1907-27.083-18.367-38.863-23.543l-12.341-5.4236 4.9021-7.0252c12.595-18.05 39.654-39.532 49.794-39.532 10.151 0 37.202 21.486 49.821 39.572l4.9294 7.0648-11.507 4.8785c-6.3287 2.6832-18.777 9.7329-27.663 15.666-8.8859 5.9332-16.247 10.788-16.359 10.788-0.11151 0-1.3332-1.1001-2.7148-2.4446z" style="stroke-width:1.7155"/></svg>
