<?xml version="1.0" encoding="UTF-8"?>
<svg version="1.1" viewBox="0 0 640 512" xml:space="preserve" xmlns="http://www.w3.org/2000/svg"><path d="m48.012 144c26.514 7e-3 48.012-21.486 48.012-48 0-26.514-21.498-48.007-48.012-48-26.514-0.0066-48.012 21.486-48.012 48 0 26.514 21.498 48.007 48.012 48zm128-80c-17.7 0-32 14.3-32 32 0 17.7 14.3 32 32 32h288c17.7 0 32-14.3 32-32 0-17.7-14.3-32-32-32zm0 160c-17.7 0-32 14.3-32 32s14.3 32 32 32h288c17.7 0 32-14.3 32-32s-14.3-32-32-32zm0 160c-17.7 0-32 14.3-32 32s14.3 32 32 32h288c17.7 0 32-14.3 32-32s-14.3-32-32-32zm-128 80c26.51 0 48-21.49 48-48s-21.49-48-48-48c-26.51 0-48 21.49-48 48s21.49 48 48 48zm48-208c0-26.51-21.49-48-48-48-26.51 0-48 21.49-48 48s21.49 48 48 48c26.51 0 48-21.49 48-48z"/><path d="m640 32c0-17.7-14.3-32-32-32s-32 14.3-32 32v448c0 17.7 14.3 32 32 32s32-14.3 32-32z"/></svg>
