<svg version="1.1" viewBox="0 0 640 512" xml:space="preserve" xmlns="http://www.w3.org/2000/svg"><path d="m38.8 5.1c-10.4-8.2-25.5-6.3-33.7 4.1s-6.3 25.5 4.1 33.7l592 464c10.4 8.2 25.5 6.3 33.7-4.1s6.3-25.5-4.1-33.7c-601.7-472.17-317.2-248.63-592-464z"/><path d="m505.92 0-18.23 18.229-18.229 18.23 11.965 14.836c14.726 18.259 21.681 29.675 30.15 49.49 16.797 39.299 21.52 83.335 13.197 123.03-1.5771 7.5222-2.518 14.025-2.0918 14.451 0.42621 0.4262 10.465 3.4064 22.309 6.623 11.844 3.2166 22.71 5.7217 24.146 5.5664 1.7454-0.18879 4.0064-5.4796 6.8145-15.947 3.7249-13.885 4.2109-19.422 4.2832-48.748 0.06164-25.007-0.67549-36.894-3.0215-48.691-9.2584-46.559-29.441-88.382-59.557-123.42l-11.736-13.654zm-371.68 0.13477-11.68 13.586c-19.858 23.101-35.332 49.311-46.258 77.77 13.752 10.758 35.838 28.059 43.885 34.342 8.779-29.224 23.492-56.6 42-76.23 10.045-10.655 11.02-8.0213-12.049-32.559l-15.898-16.908zm187.64 14.994c-22.935 0-29.054 0.59692-40.736 3.9766-55.088 15.937-94.972 54.241-113.29 108.79-2.5704 7.6572-4.5386 18.011-5.8711 30.641 26.476 20.683 161.69 126.75 322.26 252.71h49.332l7.7539-3.918c14.224-7.1859 18.83-20.024 16.615-46.32-3.1689-37.623-16.391-62.749-43.619-82.885-14.776-10.927-21.698-19.507-27.258-33.785-3.4089-8.7546-3.9651-14.493-5.0801-52.49-1.4138-48.182-3.3313-58.724-15.352-84.375-8.7192-18.606-15.475-28.462-29.727-43.365-19.944-20.856-46.594-36.994-74.367-45.031-11.598-3.3563-17.767-3.9551-40.662-3.9551zm-259.49 126.55c-3.6685 24.145-3.4854 70.58 0.66406 92.547h-0.001953c3.2241 17.069 3.2476 17.117 7.8359 16.02 2.5311-0.60545 13.875-3.5295 25.207-6.498l20.604-5.3984-0.97851-5.3965c-2.1491-11.843-4.5068-37.411-4.5098-48.93-4.3e-4 -1.325 0.07344-2.6674 0.10352-4l-48.924-38.344zm97.291 76.254c-0.37101 9.1057-1.2305 14.278-3.1191 19.768-4.5124 13.116-11.99 23.618-24.021 33.732-35.233 29.619-47.311 50.76-50.174 87.83-2.1869 28.316 2.1064 40.765 16.578 48.076l7.7559 3.918h213.44 86.199l-246.65-193.32zm107.74 242.08 1.0762 7.8398c2.5783 18.811 16.117 34.748 35.76 42.098 10.371 3.8801 29.165 2.0714 40.055-3.8555 14.95-8.1366 25.308-22.564 27.457-38.242l1.0742-7.8398h-52.711-52.711z" style="stroke-width:1.7412"/></svg>
