<svg version="1.1" viewBox="0 0 640 512" xml:space="preserve" xmlns="http://www.w3.org/2000/svg"><path d="m214.99 504.23c-27.004-13.733-37.082-39.723-37.082-95.632 0-40.709 1.5769-48.148 11.308-53.357 26.491-14.178 34.644 0.61088 37.065 67.238l1.4921 41.064h17.599c17.412 0 17.617-0.37487 19.288-35.198 3.0444-63.472 48.176-68.399 48.176-5.2589 0 66.928-47.822 106.59-97.847 81.146zm86.816-151.97-154.76-42.827-31.456 14.401c-39.941 18.285-52.583 14.466-68.613-20.732-16.156-35.473-17.813-143.61-2.7265-177.89 16.46-37.402 33.108-43.64 68.538-25.687l29.736 15.068 161.82-58.985c97.519-35.548 166.22-57.588 172.89-55.47 16.49 5.2336 41.784 37.997 39.76 51.497-3.3978 22.652-21.361 26.623-37.333 8.2503-17.752-20.418-22.371-17.72-35.851 20.941-22.189 63.638-10.944 248.93 16.122 265.65 2.974 1.838 11.852-4.0707 19.729-13.131 16.233-18.671 33.965-14.308 37.46 9.2172 2.3009 15.488-33.575 53.748-49.708 53.011-5.969-0.27471-80.495-19.769-165.61-43.325zm96.753-36.842c-17.699-78.39-17.776-174.05-0.18829-234.65 3.7454-12.907 2.5715-12.735-54.051 7.9312-31.834 11.618-90.452 32.756-130.26 46.972l-72.379 25.847-26.79-11.851c-14.735-6.5178-28.362-10.282-30.283-8.3636-5.1925 5.1834-4.234 135.71 1.0353 140.99 2.4908 2.4973 16.128-1.0947 30.305-7.9825l25.775-12.523 125.16 34.464c148.44 40.876 136.18 39.091 131.68 19.167zm140.57 4.4648c-31.462-18.447-40.435-29.438-35.189-43.106 7.6872-20.033 31.449-15.272 74.354 14.896 17.929 12.607 21.802 36.446 6.8533 42.182-13.17 5.0538-13.99 4.8049-46.018-13.974zm-31.527-106.84c-10.571-10.571-8.4811-26.974 4.3076-33.82 28.895-15.464 94.248-3.4032 94.248 17.393 0 21.134-80.441 34.54-98.557 16.426zm2.1789-90.175c-16.504-16.504-7.1075-29.474 39.805-54.94 22.49-12.209 27.724-13.14 35.868-6.3798 16.739 13.892 8.0238 31.155-25.968 51.441-36.915 22.029-37.45 22.135-49.706 9.8808z" style="stroke-width:5.8665"/></svg>
