<svg version="1.1" viewBox="0 0 640 512" xml:space="preserve" xmlns="http://www.w3.org/2000/svg"><path d="m321.56 0.029297c-53.871-0.81708-109.06 15.406-157.56 51.926-24.061 18.118-43.419 39.291-58.58 62.318 5.9364 4.6378 23.209 18.168 27.975 21.889 72.962-105.71 235.93-149.77 346.53-32.82 85.756 90.669 76.076 224.11 0.73243 305.1 11.603 9.1028 12.624 9.8976 25.537 20.029 50.736-54.257 78.935-129.66 66.449-210.33-20.441-132.05-132.57-216.32-251.09-218.12zm-59.807 148.49v32.287h109.34l-79.414 79.416c4.6999 3.6827 21.46 16.833 26.945 21.133l76.506-76.439v109.27h32.289l-1.4727-81.361-1.4726-81.361zm-179.02 9.0996c-53.622 133.59 13.6 303.68 169.69 345.71 79.13 21.308 157.52 1.7805 217.31-42.391l-26.381-20.678c-22.911 15.509-49.386 27.158-79.158 33.387l-6e-3 0.01c-37.033 7.7485-66.447 6.99-102.44-2.6387-26.926-7.2038-85.359-37.763-85.359-44.641 0-1.5928 48.546-51.388 107.94-110.75l-26.971-21.139c-60.572 60.323-103.53 96.313-107.2 98.607-4.4861 2.8119-15.869-11.242-30.146-39.771-30.987-61.921-30.395-122.59-9.8241-174.18z" style="stroke-width:5.335"/><path d="m38.8 5.1c-10.4-8.2-25.5-6.3-33.7 4.1s-6.3 25.5 4.1 33.7l592 464c10.4 8.2 25.5 6.3 33.7-4.1s6.3-25.5-4.1-33.7c-601.7-472.17-317.2-248.63-592-464z"/></svg>
