<svg version="1.1" viewBox="0 0 640 512" xml:space="preserve" xmlns="http://www.w3.org/2000/svg"><path d="m71.63 505.97c-12.002-6.7166-11.227-15.05 6.6786-71.777l15.377-48.718-13.047-35.943c-94.84-261.28 229.21-469.92 418.84-269.68 81.631 86.202 98.764 186.43 49.231 288-60.294 123.63-207.29 177.52-334.95 122.79-21.933-9.4014-22.726-9.3462-77.699 5.4015-38.217 10.253-58.311 13.349-64.426 9.927zm311.26-36.237c108.94-33.648 178.28-149.6 153.18-256.13-47.879-203.19-321.96-238.79-413.36-53.705-27.272 55.219-29.648 137.11-5.5147 190.05l14.55 31.912-12.576 42.551c-6.9165 23.403-11.931 43.287-11.142 44.184 0.78836 0.89906 21.772-3.6998 46.629-10.219l45.195-11.854 26.898 11.572c56.412 24.268 103.84 27.806 156.15 11.646zm-189.46-194.63c-4.597-4.5971-8.3581-12.803-8.3581-18.236 0-22.691 28.7-34.366 44.831-18.236 16.13 16.13 4.456 44.831-18.236 44.831-5.4328 0-13.639-3.7611-18.236-8.3582zm106.38 0c-4.5971-4.5971-8.3582-12.803-8.3582-18.236 0-22.691 28.7-34.366 44.829-18.236 16.13 16.13 4.456 44.831-18.236 44.831-5.4329 0-13.639-3.7611-18.236-8.3582zm106.38 0c-16.13-16.13-4.456-44.831 18.236-44.831 12.691 0 26.594 13.903 26.594 26.594 0 22.691-28.7 34.366-44.831 18.236z" style="stroke-width:5.3188"/></svg>
