<?xml version="1.0" encoding="UTF-8"?>
<svg id="path" version="1.1" viewBox="0 0 640 512" xml:space="preserve" xmlns="http://www.w3.org/2000/svg"><path id="path1-367535629127" d="m128 0c-17.7 0-32 14.3-32 32v74.9c44.676 34.918 170.09 133.24 333.07 261.08 20.107-0.33149 40.211-4.0404 59.432-11.279l34.699-13c12.5-4.7 20.801-16.6 20.801-30v-247.7c0-23-24.201-37.999-44.801-27.699l-9.5996 4.7988c-46.3 23.2-100.8 23.2-147.1 0-35.1-17.6-75.4-22-113.5-12.5l-69 17.4v-16c0-17.7-14.3-32-32-32zm-32 168.01v311.99c0 17.7 14.3 32 32 32s32-14.3 32-32v-128l64.301-16.1c28.32-7.0973 57.78-7.0221 85.762-0.10742z"/><path id="line" d="m38.8 5.1c-10.4-8.2-25.5-6.3-33.7 4.1s-6.3 25.5 4.1 33.7l592 464c10.4 8.2 25.5 6.3 33.7-4.1s6.3-25.5-4.1-33.7c-601.7-472.17-317.2-248.63-592-464z"/></svg>
