<?xml version="1.0" encoding="UTF-8"?>
<svg id="svg2352" version="1.1" viewBox="0 0 640 512" xml:space="preserve" xmlns="http://www.w3.org/2000/svg"><path id="path" d="m178.27 182.25 68-32.295h12.047v221.38h-36.986v-175.11l-43.061 20.505zm253.75 94.58a58.644 58.644 0 0 1-0.51263 65.104 69.205 69.205 0 0 1-27.81 23.325 94.81 94.81 0 0 1-78.637 0 71.101 71.101 0 0 1-28.118-23.401 57.747 57.747 0 0 1-0.487-64.899c6.5873-9.8168 15.635-17.686 26.272-22.889a60.798 60.798 0 0 1-18.096-20.89 56.645 56.645 0 0 1-6.5872-26.862 53.826 53.826 0 0 1 8.7659-30.117c5.9721-9.0479 14.277-16.327 24.042-21.018 10.483-5.1775 22.043-7.8176 33.705-7.6894 11.56-0.12816 22.991 2.5119 33.321 7.6894 9.663 4.7418 17.865 11.995 23.735 21.018 5.8183 9.0222 8.8428 19.531 8.7146 30.245a56.389 56.389 0 0 1-6.536 26.913 58.952 58.952 0 0 1-18.096 20.505c10.637 5.1775 19.736 13.123 26.298 22.966zm-46.905 61.182c6.0234-2.8194 11.201-7.1768 14.943-12.688 3.6396-5.3057 5.5364-11.637 5.4851-18.07a32.475 32.475 0 0 0-5.2544-17.942 37.627 37.627 0 0 0-14.61-13.072 45.521 45.521 0 0 0-21.274-4.87c-7.4331-0.10253-14.789 1.5635-21.428 4.87a38.447 38.447 0 0 0-14.943 13.149 32.347 32.347 0 0 0 0.0769 35.884c3.7678 5.5364 8.9197 9.945 14.943 12.816 6.5616 3.1783 13.764 4.7674 21.043 4.6649a47.674 47.674 0 0 0 21.018-4.7418zm-37.781-155.92a30.604 30.604 0 0 0-11.995 10.816 28.451 28.451 0 0 0-4.4342 15.763c-0.0513 5.7414 1.4866 11.38 4.4342 16.302 2.8963 4.9212 7.0486 8.971 11.995 11.79 5.1519 2.922 10.996 4.4342 16.917 4.3573 5.8952 0.0513 11.688-1.4097 16.814-4.2804a31.603 31.603 0 0 0 16.353-28.169 29.015 29.015 0 0 0-16.276-26.58 38.626 38.626 0 0 0-33.808 0zm-27.323 329.9a118.31 118.31 0 0 1-83.814-34.654l-137.54-137.51a118.6 118.6 0 0 1 0-167.68l137.54-137.51a118.78 118.78 0 0 1 167.68 0l137.54 137.51a118.78 118.78 0 0 1 0 167.68l-137.54 137.51a118.29 118.29 0 0 1-83.814 34.654zm0-479.97a86.173 86.173 0 0 0-61.156 25.298l-137.49 137.51a86.48 86.48 0 0 0 0 122.31l137.54 137.51a86.634 86.634 0 0 0 122.34 0l137.51-137.51a86.506 86.506 0 0 0 0-122.31l-137.56-137.49a86.224 86.224 0 0 0-61.182-25.324z" stroke-width="25.631"/></svg>
