<svg version="1.1" viewBox="0 0 640 512" xml:space="preserve" xmlns="http://www.w3.org/2000/svg"><path d="m234.03 188.03c-11.458 0-20.929 1.5585-28.75 4.4121 4.5291 3.5453 14.426 11.305 20.096 15.746 2.4611-0.33628 5.0942-0.56445 8.0918-0.56445 7.875 0 13.906 1.4375 18.094 4.3125 4.25 2.875 7.0625 7.1563 8.4375 12.844l26.812-3.6562c-2.375-11.812-7.6875-20.281-15.938-25.406-8.1875-5.125-20.469-7.6875-36.844-7.6875zm-190.12 1.9688v132.09h24.562v-77.906c0-6-0.5625-13.938-1.6875-23.812l57.562 101.72h32.438v-106.44l-24.562-19.252v70.379c0 7.75 0.5625 16.344 1.6875 25.781l-58.406-102.56h-31.594zm266.72 0v85.008c5.976 4.6869 21.111 16.563 27.656 21.697v-23.08h67.594v-21.375h-67.594v-40.875h69.75v-21.375h-97.406zm104.62 0 34.031 132.09h32.812c12.375-53 19.031-81.625 19.969-85.875 0.9375-4.3125 2.1562-10.563 3.6562-18.75 1.5 9.8125 3.3438 19.219 5.5312 28.219l17.906 76.406h32.812l34.125-132.09h-28.031l-15.938 73.5-4.9688 21.562-2.3438 10.875c-3.125-18.5-5.3438-30.375-6.6562-35.625l-16.688-70.312h-30.938c-10.812 46.125-17.062 73.156-18.75 81.094-1.625 7.875-3.3125 16.156-5.0625 24.844l-4.3125-20.625-19.125-85.312h-28.031zm-232.33 46.143c0.11713 0.41528 0.16511 0.89272 0.29687 1.2949 1.25 3.625 2.9688 6.7812 5.1562 9.4688s4.8438 5 7.9688 6.9375c3.125 1.875 6.625 3.5312 10.5 4.9688 1.942 0.68911 4.6427 1.4973 8.0918 2.4219l-32.014-25.092zm19.047 47.139-26.719 4.4062c2.75 12.187 8.9375 21.281 18.562 27.281s22.906 9 39.844 9c18.562 0 32.625-3.4063 42.188-10.219 1.0699-0.76421 2.0568-1.5808 3.0078-2.4199l-19.383-15.191c-4.4797 4.7278-12.812 7.1113-25.062 7.1113-9.3125 0-16.594-1.5625-21.844-4.6875-5.25-3.1875-8.7812-8.2813-10.594-15.281z" style="stroke-linecap:square;stroke-linejoin:round;stroke-miterlimit:3"/><path d="m32.033 156c-17.657 0-32.033 14.376-32.033 32.033v135.93c0 17.657 14.376 32.033 32.033 32.033h303.81l-13.225-10.365h-290.59c-12.094 0-21.668-9.574-21.668-21.668v-135.93c0-12.094 9.574-21.668 21.668-21.668h61.863l-13.225-10.365h-48.639zm126.71 0c2.3745 1.8547 10.573 8.2777 13.244 10.365h435.98c12.094 0 21.668 9.574 21.668 21.668v135.93c0 12.094-9.574 21.668-21.668 21.668h-207.39c4.1528 3.257 8.7852 6.891 13.215 10.365h194.17c17.657 0 32.033-14.376 32.033-32.033v-135.93c0-17.657-14.376-32.033-32.033-32.033h-449.22z" style="-inkscape-stroke:none;color:#000000;stroke-linecap:square;stroke-linejoin:round;stroke-miterlimit:3"/><path d="m38.8 5.1c-10.4-8.2-25.5-6.3-33.7 4.1s-6.3 25.5 4.1 33.7l592 464c10.4 8.2 25.5 6.3 33.7-4.1s6.3-25.5-4.1-33.7c-601.7-472.17-317.2-248.63-592-464z"/></svg>
