<svg version="1.1" viewBox="0 0 640 512" xml:space="preserve" xmlns="http://www.w3.org/2000/svg"><image transform="matrix(12.709 0 0 12.709 -56.795 -133.56)" width="60.854" height="60.854" style="display:none;fill:#000000" preserveAspectRatio="none"/><path transform="matrix(12.709 0 0 12.709 -56.795 -133.56)" d="m21.754 20.284-16.271 16.271c-2.3076 2.3076 0.044095 4.6594 0.044095 4.6594l5.6442 5.6442c2.2489 2.2489 4.5565-0.05879 4.5565-0.05879l8.2752-8.2752 5.6956 5.5707c2.3481 2.3481 4.5786 0.11759 4.5786 0.11759l13.816-13.611 3.4688 3.6156s2.4061 1.9162 3.2336-1.2347l0.02939-17.064s-4e-6 -2.5726-2.5869-2.455l-16.962 1e-6c-3.2693 1.2703-1.2935 3.19-1.2935 3.19l3.6452 3.7477-5.5854 5.5854-5.6442-5.6442c-2.3517-2.3517-4.6447-0.05879-4.6447-0.05879" style="paint-order:normal"/><path transform="matrix(12.709 0 0 12.709 -56.795 -133.56)" d="m42.17 20.357-3.7036-3.7036h13.096v13.096l-3.704-3.704-15.874 15.874-7.9371-7.9371-10.568 10.568-5.6442-5.6442 16.271-16.271 7.893 7.893z" style="display:none;paint-order:stroke fill markers"/></svg>
