<?xml version="1.0" encoding="UTF-8"?>
<svg version="1.1" viewBox="0 0 640 512" xml:space="preserve" xmlns="http://www.w3.org/2000/svg"><path d="m313.55 509.32c3.5702 3.5702 9.3683 3.5702 12.939 0l54.839-54.839c3.5702-3.5702 3.5702-9.3683 0-12.939-3.5702-3.5702-9.3683-3.5702-12.939 0l-48.384 48.384-48.384-48.355c-3.5702-3.5702-9.3683-3.5702-12.939 0-3.5702 3.5702-3.5702 9.3683 0 12.939l54.839 54.839z" stroke-width=".28562"/><path d="m300.54 100.27c-53.774 0-97.33 43.556-97.33 97.33v116.79c0 53.774 43.556 97.33 97.33 97.33h38.93c53.774 0 97.33-43.556 97.33-97.33v-116.79c0-53.774-43.556-97.33-97.33-97.33h-38.93zm19.465 39.727c8.85 0 16 7.15 16 16v54c0 8.85-7.15 16-16 16-8.85 0-16-7.15-16-16v-54c0-8.85 7.15-16 16-16z" stroke-width=".60831"/><path d="m313.55 2.6777c3.5702-3.5702 9.3683-3.5702 12.939 0l54.839 54.839c3.5702 3.5702 3.5702 9.3683 0 12.939-3.5702 3.5702-9.3683 3.5702-12.939 0l-48.384-48.384-48.384 48.355c-3.5702 3.5702-9.3683 3.5702-12.939 0-3.5702-3.5702-3.5702-9.3683 0-12.939l54.839-54.839z" stroke-width=".28562"/></svg>
